<?xml version="1.0" encoding="UTF-8" standalone="no"?>
<svg
   version="1.1"
   viewBox="0 0 648.685 944.9433"
   width="648.685pt"
   height="944.9433pt"
   id="svg6"
   sodipodi:docname="j-logo-white.svg"
   inkscape:version="1.4.2 (ebf0e940d0, 2025-05-08)"
   xmlns:inkscape="http://www.inkscape.org/namespaces/inkscape"
   xmlns:sodipodi="http://sodipodi.sourceforge.net/DTD/sodipodi-0.dtd"
   xmlns="http://www.w3.org/2000/svg"
   xmlns:svg="http://www.w3.org/2000/svg">
  <defs
     id="defs6" />
  <sodipodi:namedview
     id="namedview6"
     pagecolor="#212121"
     bordercolor="#000000"
     borderopacity="0.25"
     inkscape:showpageshadow="2"
     inkscape:pageopacity="0.0"
     inkscape:pagecheckerboard="0"
     inkscape:deskcolor="#d1d1d1"
     inkscape:document-units="pt"
     showgrid="false"
     inkscape:zoom="0.43725586"
     inkscape:cx="429.95421"
     inkscape:cy="719.25851"
     inkscape:window-width="1416"
     inkscape:window-height="850"
     inkscape:window-x="0"
     inkscape:window-y="0"
     inkscape:window-maximized="1"
     inkscape:current-layer="svg6" />
  <path
     d="m 542.03769,0 c 0.27,4.49 0.19,9.01 0.19,13.5 -0.08,16.61 0.08,33.23 -0.08,49.84 -10.25,4.34 -20.81,7.79 -31.14,11.92 -11.18,4.45 -22.35,8.88 -33.68,12.94 -41.57,16.17 -83.42,31.59 -124.87,48.07 -35.22,13.49 -70.38,27.17 -105.62,40.6 -24.79,9.6 -49.76,18.77 -74.47,28.56 -29.21,11.2 -58.53,22.07 -87.749997,33.24 -4.45,1.53 -8.84,3.71 -13.45,4.66 -2.47,0.66 -5.02,-1.33 -7.06,-2.51 -18.65,-12.11 -36.65,-25.45 -55.04,-37.98 2.73,-1.43 5.52,-2.99 8.38,-4.1 26.22,-9.59 52.09,-20.07 78.3,-29.67 18.489997,-6.89 36.849997,-14.09 55.379997,-20.84 40.59,-15.38 81.48,-30.87 122.11,-46.1 10.16,-3.64 20.04,-7.98 30.25,-11.46 25.17,-9.56 50.28,-19.1 75.48,-28.57 22.14,-8.12 44.07,-16.8 66.2,-24.97 22.57,-8.85 45.21,-17.56 67.91,-26.09 9.66,-3.64 19.18,-7.77 28.96,-11.04 z"
     fill="#181919"
     id="path2"
     style="fill:#ffffff;fill-opacity:1" />
  <path
     d="m 648.18769,62.37 c 0.87,12.33 0.22,24.77 0.43,37.13 -0.13,11.57 0.4,23.19 -0.32,34.73 -30.76,11.72 -61.18,24.31 -91.97,35.96 -44.35,17.3 -88.89,34.85 -133.21,52.25 -27.15,10.89 -54.57,21.11 -81.66,32.17 -17.64,6.94 -35.34,13.74 -52.95,20.75 -35.94,13.6 -71.55,28.09 -107.43,41.85 -4.05,1.45 -8.32,3.77 -12.63,4.11 -2.57,-0.32 -5.04,-2.32 -7.15,-3.73 -14.02,-10.35 -28.17,-20.52 -42.21,-30.84 -6.56,-5.09 -13.54,-9.42 -19.829997,-14.84 11.369997,-4.5 22.789997,-8.88 34.169997,-13.36 39.8,-14.94 79.64,-30.35 119.39,-45.4 11.06,-3.87 21.83,-8.47 32.85,-12.45 47.79,-18.43 95.72,-36.68 143.52,-55.08 33.63,-12.6 67.1,-25.73 100.71,-38.4 20.26,-7.53 40.16,-15.73 60.46,-23.03 9.29,-3.54 18.53,-7.23 27.82,-10.77 9.99,-3.65 19.76,-8.19 30.01,-11.05 z"
     fill="#181919"
     id="path3"
     style="fill:#ffffff;fill-opacity:1" />
  <path
     d="m 648.16769,176.3 c 0.53,6.73 0.42,13.46 0.38,20.2 0.01,143.67 -0.01,287.33 0.01,431 0.16,16.37 -0.44,33.21 -3.18,49.37 -2.36,15.54 -6.3,30.57 -11.07,45.53 -7.82,24.72 -20.22,46.87 -34.96,68.08 -10.34,14.46 -21.74,28.09 -34.41,40.57 -13.12,13.47 -27.7,25.07 -42.84,36.17 -18.73,13.66 -38.86,25.1 -59.74,35.14 -10.86,5.14 -21.75,10.19 -33.08,14.25 -15.8,6.21 -31.6,11.33 -48.04,15.58 -21.98,5.9 -44.06,10.43 -66.84,11.71 -6.02,0.26 -11.97,1.07 -18.01,1.02 -7.7,0.18 -15.27,-0.72 -22.92,-1.4 -15.67,-1.55 -30.76,-6.05 -45.37,-11.77 -19.59,-7.63 -37.67,-19.65 -53.13,-33.84 -21.28,-20.15 -38.65,-44.57 -50.77,-71.25 -7.84,-16.96 -13.26,-35.25 -17.3,-53.47 -3.74,-16.42 -4.9,-32.87 -5.28,-49.66 -0.73,-10.34 -0.4,-20.67 -0.46,-31.03 0,-24.66 -0.03,-49.34 0.02,-74 0.48,-9.16 0.53,-18.25 0.36,-27.42 9.3,5.56 18.15,12.05 27.1,18.17 9.53,6.5 19.13,12.89 28.63,19.42 3.06,2.15 6.49,4.11 9.11,6.79 1.81,1.79 1.5,4.62 1.66,6.96 -0.05,25.04 -0.03,50.04 0.01,75.08 0.03,6.6 -0.15,13.05 0.53,19.63 0.92,9.05 1.59,18.33 3.38,27.18 4.56,21.57 13.04,42.07 25,60.6 9,13.35 19.82,25.69 33.15,34.86 11.12,7.63 23.38,12.77 36.23,16.7 21.87,6.28 45.6,3.65 67.61,-0.68 35.81,-7.33 70.21,-19.6 103.01,-35.67 12.69,-6.39 25.04,-13.36 36.96,-21.08 24.39,-16.28 46.24,-35.67 63.52,-59.49 13.85,-19.11 25.04,-40.45 32,-63.04 5.05,-15.96 8.89,-32.52 10.31,-49.22 0.49,-9.61 1.36,-19.15 1.23,-28.78 0.09,-130 0.03,-260.01 0.06,-390.01 0.04,-8.29 -0.26,-16.54 0.34,-24.82 22.11,-9.48 44.38,-18.65 66.79,-27.38 z"
     fill="#181919"
     id="path4"
     style="fill:#ffffff;fill-opacity:1" />
  <path
     d="m 542.01769,218.71 c 0.27,5.95 0.21,11.84 0.19,17.79 0,133.34 0.01,266.69 0,400.03 -0.37,10.97 -2.04,22 -3.94,32.8 -7.28,34.56 -24.95,67.11 -50.35,91.7 -15.53,16 -34.92,28.9 -54.47,39.46 -19.36,10.28 -39.36,17.68 -60.06,24.7 -16.19,5.44 -32.67,9.78 -49.23,13.88 -9.11,2.43 -18.39,3.64 -27.75,4.58 -13.84,1.18 -27.79,-1.72 -40.11,-8.09 -14.12,-7.23 -27.46,-18.28 -35.33,-32.22 3.09,-1.03 6.18,-2.05 9.3,-2.95 20.35,-5.33 40.25,-11.76 60.38,-17.86 13.38,-4.6 27.01,-8.4 40.39,-13.02 20.84,-6.75 42.07,-13.95 61.74,-23.68 9.28,-4.81 18.75,-9.61 27.18,-15.71 4.44,-3.2 8.82,-6.5 13.09,-9.92 12.19,-9.96 22.5,-22.08 30.26,-35.78 5.99,-11.05 10.2,-23.24 12.59,-35.56 1.93,-12.09 3.29,-24.12 2.95,-36.36 -0.05,-117 0.03,-234 0.01,-351 -0.08,-6.09 -0.01,-12.18 0.16,-18.27 16.03,-6.33 32.15,-12.51 48.17,-18.88 4.87,-2.07 9.79,-4 14.83,-5.64 z"
     fill="#181919"
     id="path5"
     style="fill:#ffffff;fill-opacity:1" />
  <path
     d="m 0.55769297,525.24 c 7.83000003,3.24 13.59000003,8.64 20.95000003,13.21 13.39,9.23 26.71,18.61 40.02,27.96 2.93,2.08 3.33,3.44 3.36,7 -0.01,39.03 0.02,78.06 0.03,117.09 0.1,8.32 -0.19,16.76 0.46,25.03 0.48,5.88 0.19,11.78 0.83,17.62 2.04,16.44 4.23,32.41 8.76,48.4 3.04,10.55 6.23,21.13 10.2,31.37 6.7,16.5 14.73,32.36 24.719997,47.12 4.11,5.85 8.19,11.73 12.6,17.35 4.48,5.84 9.92,10.72 14.06,16.83 -5.36,-2.2 -10.56,-4.74 -15.87,-7.06 -11.03,-4.72 -21.439997,-11.12 -31.599997,-17.47 -12.2,-8.11 -23.59,-17.58 -33.81,-28.07 -8.49,-8.22 -15.03,-17.52 -21.78,-27.16 -15.11,-22.42 -23.87,-48.02 -29.4,-74.32 -1.82,-10.38 -2.85,-20.92 -3.32000003,-31.44 -0.41,-5.07 -0.83,-10.11 -0.76,-15.2 0,-50 0,-100 0.05,-150 0,-6.15 -0.26,-12.13 0.5,-18.26 z"
     fill="#181919"
     id="path6"
     style="fill:#ffffff;fill-opacity:1" />
</svg>
