<?xml version="1.0" encoding="UTF-8" standalone="no"?>
<svg
   version="1.1"
   viewBox="0 0 602.92029 1094.4811"
   width="602.92029pt"
   height="1094.4811pt"
   id="svg61"
   sodipodi:docname="paper-plane-black.svg"
   inkscape:version="1.4.2 (ebf0e940d0, 2025-05-08)"
   xmlns:inkscape="http://www.inkscape.org/namespaces/inkscape"
   xmlns:sodipodi="http://sodipodi.sourceforge.net/DTD/sodipodi-0.dtd"
   xmlns="http://www.w3.org/2000/svg"
   xmlns:svg="http://www.w3.org/2000/svg">
  <defs
     id="defs61" />
  <sodipodi:namedview
     id="namedview61"
     pagecolor="#424242"
     bordercolor="#000000"
     borderopacity="0.25"
     inkscape:showpageshadow="2"
     inkscape:pageopacity="0.0"
     inkscape:pagecheckerboard="0"
     inkscape:deskcolor="#d1d1d1"
     inkscape:document-units="pt"
     showgrid="false"
     inkscape:zoom="0.40204704"
     inkscape:cx="447.70881"
     inkscape:cy="730.01409"
     inkscape:window-width="1416"
     inkscape:window-height="850"
     inkscape:window-x="0"
     inkscape:window-y="0"
     inkscape:window-maximized="1"
     inkscape:current-layer="svg61" />
  <path
     id="path2"
     d="M 593.87988 0 C 592.546 -0.011015623 591.15914 0.18316406 589.68164 0.52441406 C 583.76164 4.424414 577.7015 4.5340039 571.7915 7.6040039 C 567.1515 7.8140039 563.15115 10.404902 558.68115 10.524902 C 556.22115 12.114902 552.87137 12.624121 550.15137 13.724121 C 547.01137 14.584121 543.88211 16.044902 540.66211 16.524902 C 538.34211 18.184902 535.8509 17.724707 533.1709 18.824707 C 531.6309 19.974707 529.79082 19.783848 528.09082 20.693848 C 526.52082 22.073848 524.6209 21.744902 522.6709 22.524902 C 519.8109 24.364902 515.39096 24.794922 512.23096 26.044922 C 508.13096 27.204922 503.95164 29.203926 499.68164 29.523926 C 495.19164 32.263926 490.75162 32.884902 485.66162 34.524902 C 483.25162 36.124902 480.39102 36.114004 477.79102 37.604004 C 474.63102 39.314004 471.22199 38.814004 467.79199 40.604004 C 463.45199 41.154004 460.31145 42.453984 456.23145 43.833984 C 454.23145 45.123984 451.96188 44.664414 449.67188 45.524414 C 445.40187 47.124414 442.26213 47.964414 437.68213 48.524414 C 435.91213 49.944414 433.41096 49.954375 431.23096 50.484375 C 421.85096 54.254375 412.82193 56.334043 403.23193 59.644043 C 400.16193 59.624043 397.56139 61.454902 394.67139 61.524902 C 393.80139 63.284902 390.95096 62.704102 389.23096 63.454102 C 382.12096 66.504102 372.71096 68.904746 365.23096 70.864746 C 363.20096 72.374746 359.09197 71.504004 357.77197 73.604004 C 356.16197 73.774004 354.64211 74.03416 353.16211 74.76416 C 351.41211 75.69416 349.77076 74.784004 348.78076 76.604004 C 345.68076 76.734004 342.98115 78.504414 339.68115 78.524414 L 338.77148 79.604004 C 335.49148 79.834004 332.51102 81.574219 329.29102 82.324219 C 323.47102 84.054219 319.36125 85.13498 313.78125 87.60498 C 307.29125 88.82498 300.4915 91.134688 294.2915 93.304688 C 286.5415 95.344688 279.82139 98.274414 271.67139 99.524414 C 269.63139 101.16441 267.281 100.57436 265.021 101.71436 C 260.451 103.24436 256.2616 103.85484 251.1416 105.71484 C 245.7216 107.77484 241.1315 108.34449 235.7915 110.60449 C 231.9815 111.49449 227.59164 113.60393 223.68164 113.52393 C 221.93164 114.95393 218.01197 114.59449 216.77197 116.60449 C 212.98197 116.62449 210.56139 117.77494 207.17139 118.81494 C 205.31139 120.30494 202.88078 119.26498 200.80078 120.60498 C 198.72078 120.90498 196.82092 121.6149 194.69092 121.5249 L 193.7915 122.60449 C 190.5815 123.28449 187.90096 124.67404 185.23096 125.64404 C 181.68096 127.13404 178.29127 127.01449 174.80127 128.60449 C 172.25127 129.01449 169.60096 129.78367 167.23096 130.76367 C 164.24096 131.31367 160.6315 132.494 157.7915 133.604 C 154.6415 133.914 152.25213 134.97441 149.68213 135.52441 C 149.18213 136.43441 148.37145 136.84393 147.23145 136.77393 C 143.06145 138.28393 138.96199 138.75449 134.79199 140.60449 C 127.29199 141.87449 123.18082 144.16383 116.34082 145.42383 C 113.79082 146.11383 111.2909 147.12441 108.6709 147.52441 C 106.7709 149.20441 104.75102 148.27449 102.79102 149.60449 C 101.28102 149.66449 100.02174 149.52498 98.781738 150.60498 C 95.731738 150.71498 92.931875 152.46393 89.671875 152.52393 C 84.811875 155.04393 78.371934 156.00355 73.231934 157.64355 C 67.381934 158.40355 64.642129 166.25475 68.682129 170.61475 C 71.462129 173.00475 75.331895 173.80383 78.191895 176.17383 C 83.031895 178.68383 88.511641 180.85391 93.181641 184.25391 C 97.031641 186.49391 100.64148 188.8449 104.77148 190.5249 C 113.48148 195.9249 121.0816 199.64451 129.6416 205.62451 C 139.8016 210.43451 147.50129 214.50471 157.32129 219.82471 C 162.35129 222.59471 167.10193 226.41463 172.23193 228.99463 C 181.31193 232.65463 188.68096 237.94471 197.23096 242.32471 C 200.00096 244.58471 204.38197 245.6149 207.77197 247.5249 C 208.93197 250.2349 208.26148 252.86391 209.77148 255.50391 C 209.91148 257.09391 209.86197 259.14367 210.77197 260.51367 C 211.49197 267.67367 213.23205 278.00445 214.35205 285.06445 C 214.51205 288.98445 215.97113 292.10396 216.16113 296.06396 C 217.44113 298.42396 216.321 301.13391 217.771 303.50391 C 217.721 306.15391 218.05104 308.57396 218.81104 311.06396 C 220.48104 322.14396 222.33074 333.15396 224.51074 344.06396 C 225.44074 347.56396 226.65189 351.99426 226.69189 355.61426 C 228.34189 358.46426 227.53197 361.69439 228.77197 364.50439 C 228.92197 368.70439 230.50092 373.24475 230.69092 377.61475 C 231.67092 379.39475 231.661 381.72488 232.771 383.50488 C 233.911 388.07488 238.67174 389.25393 242.78174 389.52393 C 245.30174 390.86393 246.7017 388.68398 248.4917 387.33398 C 254.9917 382.00398 260.10209 375.79486 266.39209 370.23486 C 273.47209 363.24486 281.02145 356.91422 288.23145 350.07422 C 293.70145 345.52422 298.48139 340.31391 303.92139 335.75391 C 307.39139 332.42391 310.88174 328.48426 314.78174 325.61426 C 319.41174 321.30426 323.60188 317.29406 328.17188 312.91406 C 328.54188 312.51406 329.08199 312.38441 329.79199 312.52441 C 336.34199 317.05441 342.56193 321.63391 349.23193 326.00391 C 359.72193 331.32391 369.6009 338.9042 379.4209 345.8042 C 387.9209 351.2742 399.27096 357.98432 407.23096 363.92432 C 409.75096 364.86432 411.74145 366.92447 414.23145 368.08447 C 416.60145 369.85447 418.90141 370.18498 420.69141 372.60498 C 422.17141 372.98498 423.43164 373.74449 424.68164 374.60449 C 426.69164 374.89449 429.2109 375.49467 431.1709 374.78467 C 433.4009 374.25467 435.17176 372.14494 436.05176 370.06494 C 438.43176 365.79494 439.31197 361.90402 441.77197 357.62402 C 442.61197 356.05402 442.11148 354.55475 443.77148 353.61475 C 445.02148 349.27475 447.62143 345.45396 448.96143 341.06396 C 451.96143 334.54396 455.10189 328.14391 457.69189 321.50391 C 458.79189 319.34391 460.49189 316.95367 460.69189 314.51367 C 461.96189 313.79367 462.05197 312.77475 462.77197 311.61475 C 463.59197 307.60475 466.40131 304.17494 467.59131 300.31494 C 469.56131 296.53494 471.35193 291.94445 472.98193 288.06445 C 474.26193 286.18445 473.951 284.18498 475.771 282.60498 C 476.361 278.17498 479.70141 273.88367 480.69141 269.51367 C 483.11141 265.71367 484.95141 260.62465 486.69141 256.51465 C 489.40141 251.48465 490.18197 248.53402 492.77197 243.62402 C 494.50197 239.67402 497.28186 235.4848 498.65186 231.4248 C 501.84186 223.9748 505.90172 215.98494 509.26172 208.06494 C 509.40172 206.93494 509.90197 206.114 510.77197 205.604 C 511.91197 201.024 515.09205 196.84475 516.60205 192.36475 C 517.68205 190.71475 517.79197 187.83377 519.77197 186.61377 C 520.69197 182.70377 523.27092 179.27465 524.69092 175.51465 C 526.49092 172.61465 528.33141 168.90416 528.69141 165.51416 C 529.80141 164.61416 530.13207 163.70404 530.62207 162.39404 C 535.04207 154.39404 539.92094 144.24494 543.96094 136.06494 C 545.45094 130.84494 549.50189 125.87416 550.69189 120.51416 C 552.66189 119.38416 551.96102 116.88359 553.54102 115.18359 C 556.09102 109.82359 559.02092 104.18392 560.69092 98.523926 C 562.20092 97.623926 562.51125 95.683652 563.53125 94.243652 C 567.05125 88.613652 568.261 82.184258 571.771 76.614258 C 573.141 72.354258 575.97209 68.574531 577.64209 64.394531 C 580.09209 59.974531 581.35127 54.763691 583.55127 50.283691 C 585.06127 46.753691 586.28125 46.074453 587.53125 42.064453 C 590.47125 36.524453 593.58111 32.504453 595.89111 27.064453 C 596.77111 23.154453 599.56127 19.584609 601.55127 16.224609 C 603.56127 13.214609 602.76148 9.0436719 602.77148 5.5136719 C 601.82148 4.4336719 601.261 3.0244141 600.271 2.0244141 C 598.17725 0.60566392 596.10303 0.018359372 593.87988 0 z M 551.93262 26.34375 C 552.21431 26.355579 552.49447 26.409551 552.77197 26.523926 C 551.47197 29.013926 549.41084 28.80418 547.36084 30.28418 C 546.08084 31.28418 544.52209 32.023965 543.14209 32.813965 C 540.07209 34.163965 538.08141 36.474902 534.69141 37.524902 C 532.77141 39.604902 529.33141 40.274902 527.19141 42.024902 C 523.31141 45.774902 518.52193 47.813574 514.23193 50.913574 C 504.30193 56.983574 493.89193 62.534609 484.23193 68.724609 C 480.28193 70.944609 476.171 72.47498 472.771 75.60498 C 468.431 76.77498 464.11076 81.093574 460.53076 82.413574 C 455.14076 85.863574 452.46145 87.083691 447.23145 90.783691 C 439.85145 95.633691 429.40148 101.494 422.77148 106.604 C 419.71148 107.434 417.0915 109.83373 414.2915 111.32373 C 410.0515 113.87373 406.80145 116.27377 402.23145 118.36377 C 399.30145 119.59377 396.54143 121.93449 393.46143 123.35449 C 386.72143 127.64449 381.18199 130.44449 374.79199 134.60449 C 372.16199 135.54449 370.67096 137.52395 368.23096 138.79395 C 365.18096 139.94395 362.76092 142.52393 359.69092 143.52393 C 356.90092 146.34393 352.25193 148.28369 349.23193 150.78369 C 345.82193 153.05369 340.55176 156.15449 337.80176 158.60449 C 334.82176 159.58449 333.0815 162.13391 330.2915 163.25391 C 327.8815 164.83391 325.44197 166.21355 323.27197 168.14355 C 321.01197 169.71355 318.45127 170.20383 316.55127 172.42383 C 314.30127 173.50383 312.29148 174.69434 310.27148 176.19434 L 310.27148 177.0249 C 312.64148 177.5849 312.00148 178.52498 311.77148 180.60498 C 311.09148 180.66498 310.39115 180.66498 309.68115 180.60498 C 309.76115 179.65498 309.60189 178.82475 309.19189 178.11475 C 306.79189 177.16475 305.76148 179.61451 305.77148 181.62451 C 304.79148 182.40451 304.11092 184.01498 302.69092 183.60498 C 302.41092 181.08498 300.75174 182.50498 299.78174 183.60498 C 295.58174 185.08498 291.85092 188.04441 287.69092 189.52441 C 286.32092 190.86441 284.58141 192.09441 282.69141 192.52441 C 280.67141 194.57441 277.74082 195.74496 275.34082 197.33496 C 274.06082 198.34496 272.631 198.074 271.771 199.604 C 268.191 200.654 265.82113 203.24365 262.66113 204.49365 C 257.99113 207.61365 253.12096 210.59373 248.23096 213.32373 C 240.95096 218.69373 233.06111 223.49393 225.39111 228.27393 C 224.00111 230.01393 221.901 229.71498 220.771 231.60498 C 218.491 232.14498 216.95189 233.90441 214.69189 234.52441 L 213.78076 235.604 C 212.60076 235.864 211.74213 235.7248 211.18213 235.1748 C 203.82213 230.4448 196.89164 227.06486 189.18164 223.23486 C 183.92164 219.72486 173.81164 213.99461 168.18164 211.22461 C 165.73164 209.10461 161.8409 208.91475 159.6709 206.61475 C 158.3509 205.85475 157.13092 204.91498 155.69092 204.60498 C 149.74092 200.30498 143.96111 197.765 137.64111 194.625 C 131.95111 191.775 125.39213 187.084 119.68213 184.604 C 118.94213 182.874 115.07189 182.73441 115.69189 180.52441 C 120.78189 176.25441 125.87076 172.81404 131.28076 169.14404 C 140.80076 161.52404 151.17209 155.80369 161.39209 149.28369 C 162.43209 148.26369 165.01113 147.64396 165.16113 146.06396 C 164.85113 144.99396 165.02115 144.15393 165.68115 143.52393 C 168.05115 143.44393 169.99193 142.71359 172.23193 142.18359 C 177.23193 140.08359 180.81188 140.21393 185.67188 137.52393 C 188.46188 137.28393 191.11113 136.66441 193.66113 135.52441 C 199.95113 134.57441 206.53145 131.62461 213.23145 130.22461 C 214.77145 129.29461 217.06174 129.18441 218.78174 129.52441 C 218.12174 131.44441 214.92143 132.08402 213.46143 133.37402 C 207.97143 136.12402 203.40145 138.9541 198.23145 142.2041 C 188.12145 147.0041 178.40193 154.42449 169.23193 159.35449 C 160.24193 164.88449 152.06193 170.77451 142.23193 177.12451 C 141.37193 177.99451 139.24189 179.20498 139.69189 180.60498 C 142.35189 181.30498 143.28176 178.65402 145.80176 177.62402 C 157.84176 169.27402 172.44096 160.36467 185.23096 152.03467 C 197.65096 145.10467 210.22145 137.87498 222.23145 130.35498 C 227.34145 128.61498 231.21152 125.09475 236.31152 123.36475 C 246.29152 120.17475 259.80174 115.52449 269.78174 113.60449 C 271.30174 112.40449 272.42193 112.47385 274.23193 112.19385 C 279.12193 110.06385 285.06096 109.29365 290.23096 107.74365 C 298.35096 105.01365 306.61188 102.48441 314.67188 99.524414 C 323.40188 98.104414 332.91096 94.374785 341.23096 91.404785 C 344.20096 90.864785 348.95102 89.274004 351.79102 88.604004 C 353.59102 87.084004 355.60135 87.593672 357.63135 86.513672 C 360.60135 84.953672 364.44158 84.624883 367.62158 83.504883 C 371.10158 82.434883 373.64096 81.543711 377.23096 80.803711 C 383.17096 78.373711 389.15096 76.404375 395.23096 74.484375 C 396.60096 74.574375 397.75213 74.254902 398.68213 73.524902 C 403.68213 73.444902 406.22164 70.504453 411.18164 69.814453 C 421.62164 67.024453 431.03145 63.784863 441.23145 60.484863 C 445.16145 60.764863 447.94125 58.514004 451.78125 58.604004 C 460.23125 55.054004 467.32096 53.574121 476.23096 50.474121 C 478.82096 50.354121 480.59145 48.704336 483.23145 48.694336 C 486.61145 48.674336 489.06145 46.204687 492.23145 46.054688 C 496.36145 44.774688 499.55174 43.42498 503.78174 42.60498 C 504.75174 40.76498 506.23115 41.924902 507.68115 40.524902 C 510.32115 40.394902 512.54096 38.934863 515.23096 38.734863 C 519.00096 37.004863 524.24125 35.283711 528.28125 34.303711 C 534.63125 31.573711 541.81096 29.864434 548.23096 27.294434 C 549.45783 27.050684 550.71193 26.292493 551.93262 26.34375 z M 578.67188 31.514648 L 578.79199 31.514648 C 579.42199 33.574648 577.58197 35.824258 576.77197 37.614258 C 574.29197 41.474258 572.74201 45.813965 571.06201 50.063965 C 568.46201 55.913965 564.711 61.524258 562.771 67.614258 C 557.591 75.454258 553.64092 87.063672 548.69092 95.513672 C 546.37092 101.99367 542.02092 108.99414 539.69092 115.49414 C 537.13092 120.66414 535.02166 125.90396 532.45166 131.06396 C 528.49166 139.44396 523.72076 148.10479 519.78076 156.65479 C 517.13076 161.74479 515.68092 166.40391 512.69092 171.50391 C 512.31092 174.49391 510.87092 175.03416 509.69092 177.51416 C 505.93092 186.20416 500.81105 194.28434 497.58105 203.19434 C 496.31105 206.91434 493.88197 210.80426 492.77197 214.61426 C 490.10197 218.60426 488.24117 224.46426 486.45117 228.11426 C 483.38117 233.89426 479.3215 242.16396 476.5415 248.06396 C 475.1315 252.90396 471.93154 257.33494 470.08154 262.06494 C 467.86154 267.57494 464.53072 274.645 462.49072 280.125 C 457.69072 290.375 455.2607 298.1448 449.9707 307.9248 C 448.1607 310.8148 448.15145 313.215 446.48145 316.125 C 443.36145 322.495 440.29119 329.44445 437.47119 336.06445 C 436.77119 337.52445 437.27141 338.64416 435.69141 339.51416 C 435.27141 341.38416 434.78209 342.86406 433.64209 344.41406 C 431.55209 349.22406 428.82197 353.794 426.77197 358.604 C 425.81197 358.844 424.78141 358.844 423.69141 358.604 C 422.15141 356.244 418.15096 355.21389 416.23096 353.23389 C 414.01096 352.49389 412.20096 350.45498 410.23096 349.35498 C 404.59096 346.38498 399.70092 342.16381 394.19092 339.15381 C 392.31092 337.36381 389.32197 336.5949 387.77197 334.5249 C 384.96197 333.7849 385.86156 331.664 387.35156 330.104 C 390.98156 324.084 396.84092 316.78373 400.94092 310.82373 C 404.41092 305.87373 410.19146 298.94445 414.00146 294.06445 C 417.14146 288.87445 422.25164 283.81451 425.43164 279.12451 C 429.30164 274.76451 432.90182 270.02412 436.86182 265.72412 C 440.05182 262.42412 442.381 258.78498 445.771 255.60498 C 447.021 253.35498 448.97197 251.43498 450.77197 249.60498 C 452.21197 246.89498 454.93129 244.93477 456.57129 242.38477 C 458.58129 240.07477 460.60197 237.764 462.77197 235.604 C 464.25197 232.834 466.91104 230.94379 468.56104 228.38379 C 472.80104 224.17379 475.42148 219.72449 479.77148 215.60449 C 484.40148 208.85449 491.25197 202.35377 495.77197 195.61377 C 495.57197 195.07377 495.21188 194.71393 494.67188 194.52393 C 491.98188 196.38393 490.17189 199.34416 487.69189 201.51416 C 486.82189 203.43416 485.09141 204.97393 483.69141 206.52393 C 482.57141 209.00393 480.15092 210.50371 478.94092 212.80371 C 470.97092 221.86371 464.31156 230.45445 456.35156 240.06445 C 437.23156 261.90445 420.19078 282.19375 402.55078 305.34375 C 397.35078 312.85375 390.91172 320.77467 385.51172 328.28467 C 384.33172 329.29467 383.1908 331.90496 381.3208 330.83496 C 377.8108 328.45496 374.76096 326.36451 371.23096 324.12451 C 370.19096 323.37451 368.40156 322.694 369.35156 321.104 C 374.44156 313.044 383.40213 301.97445 388.93213 294.06445 C 390.15213 291.78445 391.79148 291.04365 392.77148 288.49365 C 391.37148 288.07365 390.69092 289.77393 389.69092 290.52393 C 388.73092 293.24393 386.0215 294.37428 385.0415 296.88428 C 382.8715 298.94428 381.82189 301.50416 379.69189 303.51416 C 376.90189 308.42416 372.4616 312.43361 369.6416 317.45361 C 368.4216 318.47361 367.09096 321.18385 365.23096 319.94385 C 352.13096 312.20385 336.72096 300.93473 323.23096 292.34473 C 317.96096 289.82473 311.84145 284.93471 306.23145 282.07471 C 299.49145 277.68471 292.79109 273.58469 286.37109 268.80469 C 285.10109 267.70469 283.64178 268.13463 282.82178 266.49463 C 281.71178 265.82463 280.30133 264.62439 281.36133 263.25439 C 283.00133 261.60439 285.58189 260.58441 286.69189 258.52441 C 292.80189 254.15441 300.44145 248.0142 306.23145 243.0542 C 311.27145 238.6142 317.18098 234.60396 322.25098 230.06396 C 323.59098 228.79396 325.63092 228.3449 326.69092 226.5249 C 331.51092 223.6949 335.74078 219.47463 340.30078 216.24463 C 344.43078 212.94463 349.02141 209.72441 353.19141 206.02441 C 354.11141 205.03441 354.8118 204.34498 356.0918 203.85498 C 358.1218 202.21498 360.08096 200.37406 362.23096 198.91406 C 363.95096 198.12406 364.21107 196.39451 366.10107 195.87451 C 372.71107 190.06451 378.24215 186.7449 384.95215 180.7749 C 389.03215 177.3149 394.05189 174.44393 397.69189 170.52393 C 399.45189 169.90393 400.87197 168.09449 402.77197 167.60449 C 404.10197 165.92449 405.77131 164.48357 407.59131 163.41357 C 414.37131 158.60357 420.41174 152.75416 427.28174 148.26416 C 439.52174 138.27416 452.57096 128.45422 464.23096 119.07422 C 466.81096 117.41422 469.00197 114.61449 471.77197 113.60449 C 474.52197 110.71449 478.15174 108.65436 481.28174 106.21436 C 482.35174 105.91436 483.13084 105.32387 483.61084 104.46387 C 487.60084 101.10387 492.43133 97.873633 496.61133 94.473633 C 498.65133 92.213633 501.89092 90.944902 503.69092 88.524902 C 506.98092 87.444902 510.67129 83.154805 513.57129 81.424805 C 520.15129 76.814805 527.28145 70.343945 534.23145 65.293945 C 535.47145 64.563945 536.85141 63.713926 537.69141 62.523926 C 539.36141 61.583926 541.57092 60.074902 542.69092 58.524902 C 546.77092 56.614902 549.741 52.614492 553.771 50.604492 C 556.051 48.514492 558.72166 46.863652 560.95166 44.743652 C 562.52166 43.453652 564.71189 42.354902 565.69189 40.524902 C 568.12189 39.974902 568.97195 38.044902 571.00195 36.774902 C 573.72195 35.114902 575.77188 32.864648 578.67188 31.514648 z M 535.32715 51.505371 C 535.47734 51.498962 535.62875 51.505039 535.78125 51.524414 L 535.78125 51.624023 C 534.13125 53.304023 532.44148 54.944492 530.77148 56.604492 C 527.87148 57.654492 526.18205 61.163691 523.35205 62.283691 C 518.29205 66.103691 514.89127 69.084434 509.30127 72.294434 C 508.15127 72.844434 508.15137 73.964258 506.65137 73.614258 C 506.49137 72.734258 506.68145 72.343848 507.23145 72.443848 C 514.20145 66.343848 522.19193 61.294668 529.23193 55.284668 C 531.07881 54.440918 533.07433 51.601501 535.32715 51.505371 z M 477.81592 90.413086 C 478.10686 90.415898 478.42926 90.444863 478.80176 90.484863 C 475.25176 94.534863 468.44096 97.314184 464.23096 100.78418 C 460.32096 103.52418 456.19174 105.19498 452.78174 108.60498 C 451.10174 109.20498 449.991 110.37498 448.771 111.60498 C 447.051 111.81498 444.79189 114.91498 442.69189 114.60498 C 444.94189 111.57498 447.27092 111.16441 449.69092 108.52441 C 458.90092 103.01441 465.86127 96.784082 475.55127 91.434082 C 476.35377 90.624082 476.94311 90.404648 477.81592 90.413086 z M 460.37109 92.474121 C 460.51906 92.468438 460.6683 92.474629 460.8208 92.494629 C 461.2608 94.634629 458.32174 94.81457 457.28174 96.18457 C 454.62174 97.77457 452.63162 99.55426 449.66162 100.61426 C 449.23162 98.09426 453.58189 97.263926 454.69189 95.523926 C 456.42627 95.355176 458.15167 92.559375 460.37109 92.474121 z M 443.5415 118.42529 C 443.87291 118.40795 444.27076 118.43965 444.78076 118.51465 C 443.10076 121.02465 441.571 120.37449 439.771 122.60449 C 437.811 122.87449 436.28148 125.38498 434.77148 126.60498 C 433.03148 126.52498 432.56096 128.5643 431.23096 128.6543 C 428.66096 130.0043 427.10135 133.19439 424.38135 134.25439 C 422.40135 135.92439 420.601 137.774 418.771 139.604 C 416.371 140.514 414.76102 143.175 412.54102 144.375 C 409.96102 146.805 407.20148 149.004 404.77148 151.604 C 401.10148 153.614 398.48168 157.6449 394.97168 159.7749 C 391.43168 162.7549 388.63176 164.95377 385.05176 167.86377 C 379.40176 173.08377 372.85076 178.96498 366.78076 183.60498 C 364.72076 186.05498 361.81148 187.07498 359.77148 189.60498 C 357.93148 189.96498 356.76115 191.84498 354.68115 192.60498 C 354.22115 191.04498 356.88141 189.72393 357.69141 188.52393 C 358.97141 188.39393 359.64092 187.72441 359.69092 186.52441 C 360.96092 186.55441 361.7507 185.27367 362.9707 184.76367 C 368.5807 180.21367 373.66141 175.75393 378.69141 170.52393 C 382.25141 168.65393 384.62094 164.8449 387.96094 162.7749 C 392.86094 157.6149 399.73092 153.6649 404.69092 148.5249 C 406.85092 147.1149 408.86213 145.35393 410.68213 143.52393 C 412.55213 142.56393 414.18189 140.9649 415.69189 139.5249 C 418.39189 138.2449 420.53092 135.5549 422.69092 133.5249 C 425.34092 132.8649 426.57113 129.62402 429.16113 128.87402 C 431.03113 127.59402 431.92115 125.5743 434.18115 124.9043 C 435.10115 124.2243 435.85189 123.31393 436.69189 122.52393 C 438.75189 122.34393 438.97189 120.4049 441.19189 120.0249 C 442.15939 118.9674 442.54729 118.47732 443.5415 118.42529 z M 393.83057 138.90967 C 394.21229 138.90936 394.59693 139.02396 394.98193 139.31396 C 395.09193 140.85396 392.0415 141.98443 391.0415 142.79443 C 387.6615 145.08443 384.92109 148.09436 381.62109 150.46436 C 378.25109 152.45436 375.61072 155.06402 372.49072 157.37402 C 367.06072 161.32402 360.53193 166.04436 355.23193 169.96436 C 350.94193 173.12436 346.34145 175.54461 342.23145 178.97461 C 332.78145 186.49461 322.47156 192.31379 313.10156 199.88379 C 305.27156 205.48379 297.89176 211.32402 289.80176 216.62402 C 273.57176 229.43402 256.07076 241.01475 240.78076 254.61475 C 235.61076 258.40475 230.60145 263.3943 225.23145 266.6543 L 224.69092 266.61475 C 224.48092 264.76475 224.96189 262.10475 223.69189 260.61475 C 223.54189 259.93475 223.54189 259.23441 223.69189 258.52441 C 232.36189 253.74441 239.78197 247.49408 248.27197 242.18408 C 259.77197 233.73408 272.15193 224.79484 283.23193 215.96484 C 295.13193 207.28484 307.45176 198.7549 319.05176 189.7749 C 331.36176 180.6149 343.9208 171.07359 356.5708 162.43359 C 357.6708 161.43359 358.93092 160.84441 359.69092 159.52441 C 362.48092 158.85441 364.74188 156.32449 367.17188 154.85449 C 374.60188 149.39449 382.73148 145.41406 390.52148 140.41406 C 391.56398 139.94906 392.68541 138.91061 393.83057 138.90967 z M 161.0918 145.42383 C 161.6818 146.17383 161.40193 146.80418 160.23193 147.28418 C 146.76193 154.83418 133.64193 163.96357 121.23193 173.16357 C 118.24193 174.74357 115.89096 177.17377 113.23096 179.11377 C 109.89096 178.99377 106.47193 175.67363 103.23193 174.72363 C 100.04193 172.43363 96.001445 169.79486 92.481445 167.73486 C 91.531445 167.18486 90.780957 165.69443 92.230957 165.29443 C 94.940957 165.12443 97.130762 163.764 99.780762 163.604 C 102.59076 162.494 105.7416 161.4849 108.6416 160.5249 C 111.4516 158.8849 115.01078 159.43426 118.30078 158.36426 C 120.47078 156.75426 123.8515 157.41373 126.2915 156.32373 C 134.9215 154.38373 144.28145 149.76393 153.23145 148.02393 C 155.88145 147.48393 158.4718 145.37383 161.0918 145.42383 z M 355.52637 158.49756 C 355.61361 158.49626 355.69875 158.50117 355.78125 158.51367 L 355.78125 158.60449 C 354.18125 160.82449 352.40148 160.54498 350.77148 162.60498 C 349.41148 162.59498 348.67148 163.77449 347.77148 164.60449 C 346.39148 164.59449 345.69148 165.774 344.77148 166.604 C 342.54148 166.724 341.62182 169.70471 339.36182 170.32471 C 335.77182 172.51471 331.901 174.73498 328.771 177.60498 C 325.121 178.12498 322.55199 181.87438 319.29199 183.23438 C 318.23199 184.15438 317.68199 184.74408 316.29199 185.18408 C 313.84199 187.67408 310.141 189.05449 307.771 191.60449 C 301.691 194.79449 296.72152 199.25367 291.06152 202.76367 C 283.52152 206.80367 276.25084 211.12447 269.11084 215.83447 C 260.22084 221.70447 251.0915 226.44498 241.7915 231.60498 C 239.5415 232.93498 236.56197 233.684 234.77197 235.604 C 233.15197 235.834 231.33189 237.87402 229.69189 237.62402 C 230.58189 236.44402 232.57092 234.68393 233.69092 233.52393 C 235.42092 233.45393 236.3209 232.39441 237.6709 231.52441 C 246.3109 226.87441 254.2909 220.81496 263.1709 216.83496 C 278.8609 207.20496 294.75137 197.71418 310.15137 187.78418 C 312.77137 186.38418 315.69092 184.75367 317.69092 182.51367 C 319.91092 182.09367 320.45098 178.8742 318.50098 177.8042 C 317.73098 176.0042 318.90148 174.6549 320.77148 175.5249 C 321.42148 177.2549 322.6508 178.46396 323.5708 176.06396 C 323.4908 174.89396 324.71125 174.19441 325.78125 174.52441 C 326.03125 175.57441 326.52145 176.14389 327.23145 176.23389 C 331.22145 173.32389 334.39162 171.06441 338.66162 168.52441 C 341.22162 167.87441 341.69115 165.58465 344.18115 165.01465 C 347.16115 163.80465 348.06145 161.30389 351.23145 160.48389 C 352.4127 160.00576 354.21768 158.517 355.52637 158.49756 z M 359.28662 172.4502 C 359.43402 172.44729 359.59799 172.46715 359.78174 172.51465 L 359.78174 172.604 C 358.23174 173.974 357.34199 175.60434 355.29199 176.19434 C 353.45199 177.60434 352.55076 179.53482 350.28076 180.19482 C 339.17076 189.30482 327.28199 198.13406 315.54199 206.41406 C 310.68199 209.95406 306.37193 213.78482 301.23193 216.94482 C 283.64193 229.39482 263.13107 244.68453 246.10107 257.89453 C 240.28107 262.73453 233.05148 267.42449 227.77148 272.60449 C 227.09148 272.67449 226.40141 272.67449 225.69141 272.60449 C 225.25141 270.52449 229.39074 268.98379 230.51074 267.38379 C 240.31074 259.86379 246.85182 253.80383 256.86182 246.67383 C 264.92182 239.92383 273.52141 233.98365 281.94141 227.74365 C 293.84141 218.89365 304.94174 210.38369 317.03174 201.78369 C 321.11174 198.85369 324.78096 195.52393 329.23096 193.02393 C 335.72096 188.68393 342.05145 184.01451 348.23145 179.37451 C 349.92145 178.73451 350.31213 177.39389 352.18213 176.98389 C 353.57213 175.18389 355.30092 175.38393 356.69092 173.52393 C 357.98592 173.56768 358.2548 172.47057 359.28662 172.4502 z M 332.68213 198.52441 L 332.85205 198.52441 C 332.99205 199.21441 332.80197 199.74498 332.27197 200.10498 C 328.11197 204.29498 322.90141 208.36367 318.69141 212.51367 C 312.50141 218.10367 306.6209 223.63389 299.9209 228.73389 C 289.1009 237.15389 274.79072 246.8843 264.49072 255.4043 C 253.45072 263.8943 241.31211 271.62412 230.91211 280.72412 C 229.89211 281.27412 228.90092 282.515 227.69092 281.625 C 227.63092 279.865 227.25092 278.27441 227.69092 276.52441 C 230.17092 275.15441 231.97092 273.7449 233.69092 271.5249 C 234.55092 271.3849 235.39096 270.95463 236.23096 270.24463 C 255.05096 256.00463 271.16162 243.11439 290.66162 229.50439 C 301.47162 220.86439 313.29113 213.66451 324.16113 204.87451 C 327.03113 202.41451 329.67213 200.63441 332.68213 198.52441 z M 282.4541 211.2041 C 282.61399 211.20969 282.77045 211.23592 282.92139 211.28467 C 282.12139 213.09467 277.97092 214.69443 276.44092 216.29443 C 264.01092 226.10443 252.53213 234.34441 239.68213 243.52441 C 234.98213 245.81441 231.01139 249.65416 226.67139 252.51416 C 225.55139 253.01416 224.71135 254.68359 223.38135 253.93359 C 223.00135 251.89359 222.63127 250.07396 222.05127 248.06396 C 222.35127 245.34396 224.53115 246.6549 225.68115 244.5249 C 227.60115 244.2349 229.19135 242.64482 230.88135 241.69482 C 235.83135 238.17482 241.98145 236.11463 246.98145 232.74463 C 257.62145 226.71463 267.54164 220.31441 277.68164 213.52441 C 278.9957 212.95348 280.90854 211.15009 282.4541 211.2041 z M 258.9917 265.28467 C 259.3517 266.65467 259.42162 268.66445 259.16162 270.06445 C 257.98162 272.50445 255.23109 274.25437 253.37109 276.23438 C 249.35109 279.10438 245.70139 282.64365 241.67139 285.49365 C 240.53139 287.60365 238.10195 288.49375 236.50195 290.34375 C 234.75195 291.73375 232.79187 293.94498 230.67188 294.60498 C 228.81188 292.68498 228.00145 287.03436 231.23145 285.98438 C 239.48145 280.45438 246.93172 273.6942 255.01172 267.8042 C 256.13172 267.0742 257.6817 265.29467 258.9917 265.28467 z M 270.83936 275.24561 C 271.12197 275.25811 271.43193 275.3418 271.771 275.51367 C 272.531 277.72367 270.87189 279.26475 268.69189 278.61475 C 268.60752 277.18881 269.31325 275.17808 270.83936 275.24561 z M 257.56201 277.46484 C 258.82201 277.95484 257.41189 279.95465 256.69189 280.51465 C 256.30189 283.22465 257.041 285.49471 254.521 287.32471 C 248.011 293.12471 241.18186 298.44389 234.65186 304.48389 C 233.13186 305.24389 233.31141 307.04498 231.69141 306.60498 C 231.42141 304.76498 231.24141 302.90494 230.94141 301.06494 C 230.74141 299.32494 232.44176 298.4248 233.55176 297.4248 C 242.26176 291.0648 249.54201 284.49484 257.56201 277.46484 z M 276.37939 280.05029 C 277.96155 279.9778 281.13102 282.33049 278.9707 283.77393 C 277.2507 285.08393 275.46152 286.23404 273.81152 287.64404 C 272.35152 289.25404 270.82174 290.5842 269.03174 291.8042 C 268.29174 292.3642 266.43205 293.74494 266.10205 292.06494 C 266.57205 289.24494 268.77141 286.56393 270.69141 284.52393 C 272.63141 283.34393 274.08145 280.72494 276.23145 280.06494 C 276.27895 280.05744 276.32836 280.05263 276.37939 280.05029 z M 284.70264 284.80957 C 284.76013 284.8064 284.81959 284.80686 284.87988 284.80957 C 286.56822 284.88559 289.27227 287.20953 288.79102 288.64453 C 287.03102 290.36453 284.20076 291.51449 282.78076 293.60449 C 280.65076 293.96449 280.36172 295.52428 279.01172 296.88428 C 274.51172 301.71428 269.50088 305.96463 264.90088 310.74463 C 263.84088 311.45463 263.0609 313.04402 261.6709 312.62402 C 260.8509 308.53402 262.82189 306.33393 262.69189 302.52393 C 265.82189 302.12393 266.02141 302.32393 267.69141 299.52393 C 273.84141 295.43393 277.99096 289.12383 284.23096 284.92383 C 284.37158 284.85633 284.53016 284.81909 284.70264 284.80957 z M 293.64844 290.26758 C 294.25344 290.28133 294.87578 290.49947 295.30078 290.83447 C 296.43078 291.46447 298.70215 292.05396 297.95215 293.81396 C 292.36215 297.77396 286.49131 301.62385 281.59131 306.44385 C 277.22131 310.09385 273.7117 314.51424 269.4917 318.34424 C 265.5517 321.67424 261.41213 327.11498 257.68213 330.60498 C 257.64213 328.74498 257.21143 326.65475 258.46143 325.11475 C 259.18143 324.01475 258.58189 322.66441 259.69189 321.52441 C 260.49189 321.44441 261.1509 321.10437 261.6709 320.48438 C 263.8309 315.97438 269.2708 313.05379 272.5708 309.38379 C 279.1108 303.30379 285.79156 297.23383 292.10156 290.92383 C 292.45656 290.44383 293.04344 290.25383 293.64844 290.26758 z M 254.68213 292.5249 L 254.77148 292.5249 C 254.83148 294.1849 254.84148 295.94498 254.77148 297.60498 C 253.20148 299.44498 251.80141 301.24393 249.69141 302.52393 C 245.20141 306.81393 240.381 310.44449 235.771 314.60449 C 234.711 315.21449 234.02189 316.18498 232.69189 315.60498 C 232.62189 314.26498 232.60189 312.85367 232.69189 311.51367 C 237.09189 306.94367 242.341 303.12494 247.021 298.81494 C 248.801 297.09494 251.71141 295.81393 252.69141 293.52393 C 253.48141 293.35393 254.14213 293.0149 254.68213 292.5249 z M 304.57031 297.30176 C 304.90421 297.2943 305.29824 297.37129 305.79199 297.52441 C 306.82199 299.06441 309.191 299.51441 310.771 300.52441 C 310.951 301.20441 310.951 301.90475 310.771 302.61475 C 302.521 307.80475 294.79213 312.68439 287.68213 319.50439 C 277.61213 328.37439 266.67191 337.68396 257.21191 347.06396 C 255.67191 348.45396 255.181 350.28498 253.771 351.60498 C 253.451 351.42498 253.09141 351.09475 252.69141 350.61475 C 253.68141 348.62475 253.59189 346.67463 253.69189 344.49463 C 254.55189 342.42463 254.45092 339.75465 254.69092 337.51465 C 256.18092 337.00465 256.43174 338.42449 257.78174 338.60449 C 259.69174 336.81449 260.97096 334.53465 263.23096 333.01465 C 266.77096 330.27465 269.92145 327.03369 273.23145 324.03369 C 279.19145 318.33369 286.14078 313.66383 292.30078 308.17383 C 295.81078 304.94383 299.28129 301.83406 302.82129 298.66406 C 303.39191 297.74281 303.83573 297.31817 304.57031 297.30176 z M 297.48926 298.46338 C 297.59135 298.46068 297.69164 298.46363 297.79102 298.47363 L 297.79102 298.61426 C 293.56102 303.19426 288.04191 307.04369 283.46191 311.28369 C 279.72191 314.90369 276.16076 317.76477 272.28076 321.13477 C 271.93076 321.62477 271.40141 321.79479 270.69141 321.65479 C 277.01141 314.73479 285.76115 306.85438 293.18115 300.98438 C 294.15615 299.91563 295.9578 298.50381 297.48926 298.46338 z M 314.69092 304.5249 C 315.74092 304.4549 316.76148 304.4549 317.77148 304.5249 C 318.34148 306.6749 317.30078 307.50432 315.55078 308.42432 C 307.04078 314.90432 298.40096 323.75387 290.23096 330.96387 C 284.93096 335.28387 280.28129 340.47473 275.07129 344.84473 C 271.38129 347.81473 267.17096 350.36355 263.23096 352.64355 C 261.55096 352.33355 261.19189 353.99475 259.69189 353.61475 C 260.64189 352.46475 261.60098 351.44492 263.00098 350.79492 C 265.21098 348.98492 266.97084 346.72377 269.11084 344.86377 C 279.43084 337.34377 289.07164 328.92393 298.68164 320.52393 C 303.63164 317.12393 307.28096 312.34492 311.98096 308.79492 C 313.17096 307.60492 314.73092 306.3649 314.69092 304.5249 z M 251.26465 306.44971 C 251.41072 306.44881 251.57773 306.46916 251.77148 306.51416 C 252.49148 308.61416 250.63201 309.74445 250.81201 312.06445 C 251.51201 315.14445 246.81203 316.35445 245.33203 318.06445 C 242.64203 320.52445 238.94148 322.614 236.77148 325.604 C 236.08148 325.774 235.39141 325.784 234.69141 325.604 C 234.81141 323.534 233.87127 321.95426 235.55127 320.36426 C 239.99127 316.16426 244.94176 312.41428 249.30176 308.13428 C 250.24676 307.48678 250.24213 306.456 251.26465 306.44971 z M 300.34863 313.22607 C 300.51319 313.22032 300.68076 313.24922 300.85107 313.32422 C 300.28107 314.64422 297.95205 316.58461 296.85205 317.72461 C 288.39205 325.39461 281.53127 331.45369 272.30127 338.28369 C 271.17127 338.87369 271.05176 340.04363 269.55176 339.72363 C 272.73176 336.01363 279.09104 331.66385 282.56104 327.44385 C 287.56104 323.51385 293.01074 318.71422 298.01074 314.82422 C 298.66043 314.31797 299.46001 313.25712 300.34863 313.22607 z M 246.75 322.41064 C 247.09625 322.40939 247.436 322.44465 247.771 322.51465 C 247.831 323.85465 247.831 325.26449 247.771 326.60449 C 244.731 329.55449 241.02094 331.82488 237.96094 334.75488 C 236.16094 335.04488 236.04096 331.80381 236.98096 330.90381 C 239.74096 328.01381 242.78092 325.2749 245.69092 322.5249 C 246.05092 322.4499 246.40375 322.41189 246.75 322.41064 z M 245.47119 334.12061 C 245.64941 334.11863 245.83291 334.15361 246.02197 334.23486 C 246.64197 336.32486 245.50104 338.81396 245.81104 341.06396 C 246.24104 344.24396 242.16197 346.58498 240.77197 348.60498 C 240.06197 348.68498 239.37189 348.68498 238.69189 348.60498 C 238.68189 345.86498 237.63156 343.77396 238.10156 341.06396 C 239.06156 338.95396 241.20135 337.2348 242.88135 335.6748 C 243.69135 335.2023 244.5088 334.13125 245.47119 334.12061 z M 264.66211 354.52441 L 264.78076 354.52441 C 265.25076 355.97441 263.03174 357.04475 262.28174 358.11475 C 258.54174 360.52475 255.55193 364.05441 252.48193 367.27441 C 251.79193 368.06441 250.83084 369.59396 249.61084 368.81396 C 250.14084 366.38396 249.67131 363.09357 251.59131 361.41357 C 252.43131 360.81357 253.31096 360.38355 254.23096 360.14355 C 258.05096 358.74355 260.99211 356.29441 264.66211 354.52441 z " />
  <path
     d="m 537.69143,112.52427 h 0.12 c 0.64,1.35 -0.02,2.23 -1.03,3.09 -2.86,3.34 -5.96,5.91 -8.51,9.49 -3.97,4.02 -8.71,8.47 -12,13 -2.74,2.76 -5.79,5.86 -8,9 -2.13,2.35 -5.16,4.61 -6.5,7.5 -1,0.74 -1.71,2.48 -3.11,2.05 -0.38,-1.56 2.13,-3.04 2.94,-4.25 1.76,-3.38 5.26,-5.3 7.09,-8.88 2.69,-2.67 5.36,-5.42 7.5,-8.5 3.47,-3.44 6.96,-7.13 10.32,-10.69 0.54,-0.45 0.93,-1.05 1.18,-1.81 1.39,-0.57 2.33,-1.69 3,-3 2.42,-2.29 4.46,-4.84 7,-7 z"
     fill="#020302"
     id="path8" />
  <path
     d="m 439.69143,229.52427 h 0.09 c 0.49,1.99 -3.04,2.9 -3.01,5.08 -1.86,2.23 -5.1,4.23 -6,7 -2.14,2.19 -4.39,4.3 -6.4,6.6 -0.77,2.18 -2.54,3.12 -4.08,4.91 -0.69,2.57 -3.31,3.69 -4.81,6.13 -1.24,2.78 -4.62,4.46 -5.71,7.36 -2.07,1.62 -2.58,3.89 -4.49,5.51 -2.95,2.69 -4.53,5.95 -7.41,8.62 -0.98,1.01 -1.35,3.39 -3.25,2.96 0.87,-2.29 1.92,-2.98 3.37,-4.84 0.89,-2.17 2.96,-3.02 3.7,-5.33 1.09,-1.21 2.34,-2.51 3,-4 2.02,-2.2 4.62,-4.34 6,-7 1.69,-1.84 4.04,-3.66 5,-6 1.3,-1.52 3.58,-3 4,-5.01 1.86,-1.8 3.63,-3.69 5.4,-5.58 0.91,-2.93 4.89,-4.44 5.6,-7.41 3,-3 5.98,-6.02 9,-9 z"
     fill="#020302"
     id="path16" />
  <path
     d="m 460.43143,256.31427 c 1.03,-0.16 1.49,0.09 1.38,0.75 -0.51,2.63 -2.57,3.81 -3.76,6 -3.82,5.9 -9.79,12.46 -13.78,18.04 -6.41,7.51 -11.36,14.7 -16.98,22.01 -5.77,7.72 -11.44,15.25 -17.23,22.95 -2.19,2.97 -4.56,7.29 -7.39,9.55 -0.9,-1.76 0.41,-2.63 0.96,-4.18 9.9,-14.24 22.93,-31.98 33.76,-45.37 5.87,-7.92 11.1,-14.92 17.08,-22.82 1.76,-2.32 3.52,-5.35 5.96,-6.93 z"
     fill="#020302"
     id="path17" />
  <path
     d="m 196.78143,408.52427 c 1.05,0.95 2.09,1.89 2.99,2.99 0.21,1.33 0.06,2.75 0,4.1 -2.35,3.62 -5.3,6.63 -8.68,9.28 -4.19,3.89 -8.52,7.43 -12.61,11.41 -1.66,1.94 -3.62,3.78 -5.63,5.37 -2.44,1.52 -6.08,0.82 -8.16,-1.06 -0.52,-2.12 -1.26,-4.39 -0.5,-6.55 0.36,-2.16 2.2,-2.89 3.36,-4.65 6.67,-5.07 11.99,-11.29 18.41,-16.61 2.95,-3.29 6.18,-5.49 10.82,-4.28 z"
     fill="#020302"
     id="path33" />
  <path
     d="m 144.69143,453.52427 c 3.16,-0.21 5.78,-0.64 8.08,2 0.25,1.66 0.12,3.42 0,5.1 -2.47,4.96 -7.52,8.68 -11,12.99 -0.97,1.23 -2.71,2.41 -3,3.99 -1.27,0.35 -2.05,1.23 -2.86,2.19 -2.37,2.72 -4.57,5.24 -7.83,6.94 -2.66,0.93 -5.9,0.58 -7.4,-2.1 -0.76,-2.09 -0.03,-3.87 0.01,-6.11 1.39,-0.79 1.64,-2.22 2.84,-3.21 4.08,-5.25 8.85,-9.71 13.45,-14.47 1.87,-2.18 3.79,-4.18 6.25,-5.7 0.65,-0.3 1.13,-0.84 1.46,-1.62 z"
     fill="#020302"
     id="path34" />
  <path
     d="m 109.08143,501.35427 c 3.1,2.38 2.85,8.03 -0.02,10.58 -3.58,4.99 -7.16,10.04 -10.570001,15.13 -2.12,3.44 -4.67,7.79 -8.36,9.71 -2.13,0.61 -5.91,0.78 -7.52,-1.05 -0.39,-2.34 0.06,-4.84 0.08,-7.21 1.33,-2.28 2.87,-4.39 4.38,-6.53 1.36,-1.55 1.7,-3.36 3.7,-4.38 1.77,-3.37 6.45,-10.01 8.78,-13.24 2.400001,-2.72 5.990001,-4.03 9.530001,-3.01 z"
     fill="#020302"
     id="path35" />
  <path
     d="m 71.231429,552.77427 c 1.97,0.11 2.39,1.46 3.54,2.74 0.18,2.04 0.08,4.06 0,6.1 -1.52,0.85 -1.25,2.28 -2.29,3.55 -5.21,7.26 -8.91,18.72 -15.71,24.44 -1.79,0.28 -3.3,0.22 -5.09,0 -2.69,-2.93 -3.62,-7.02 -1.15,-10.41 2.67,-5.75 6.26,-10.39 9.53,-17.13 1.91,-4.82 5.6,-9.17 11.17,-9.29 z"
     fill="#020302"
     id="path36" />
  <path
     d="m 46.091429,608.06427 c 1.72,5.2 -2.15,11.57 -4.59,16 -1.49,2.57 -2.07,6.02 -3.81,8.45 -0.61,3.48 -3.34,7.04 -5.02,10 -1.83,1.24 -2.98,2.87 -5.44,2.26 -4.07,-1.74 -5.17,-6.96 -3.32,-10.78 0.41,-2.28 1.76,-3.71 2.59,-5.79 3.2,-5.73 4.29,-10.96 7.17,-16.74 1.19,-1.67 1.93,-4.29 4.11,-4.86 2.32,-1.75 6.88,-1.2 8.31,1.46 z"
     fill="#020302"
     id="path37" />
  <path
     d="m 19.791429,666.52427 c 2.3,1.48 3.03,3.91 2.86,6.54 -0.15,1.79 0.45,4.12 -0.96,5.45 -0.17,3.97 -1.44,7.19 -1.92,11.12 -1.44,2.63 -0.88,5.29 -2.08,7.86 -0.04,3.2 -1.27,7.13 -4.03,9.02 -1.39,0.81 -3.53,1.02 -4.8799996,0.01 -2.21,-0.35 -1.29,-1.93 -3.09,-2.91 -0.24,-2.08 -1.42,-3.38 -0.53,-5.55 1.34,-2.73 0.86,-6.21 2.1,-9 1.18,-3.81 2.21,-9 2.9799996,-13 0.2,-3.24 1,-7.14 4.2,-8.69 1.36,-1.3 3.65,-1.3 5.35,-0.85 z"
     fill="#020302"
     id="path38" />
  <path
     d="m 11.771429,728.52427 c 0.87,3.21 2.22,6.07 1.37,9.54 -0.15,4.2 -0.09,8.37 -0.37,12.58 -1.12,2.43 -0.45,5.81 -0.75,8.42 -0.42,2.21 -0.04,4.33 -0.25,6.55 -1.7,1.78 -2.7999996,3.6 -5.5399996,3.69 -2.39,-0.07 -2.79,-1.61 -4.75,-2.44 -2.69,-3.97 -0.77999996,-7.43 -1.33999996,-11.8 0.90999996,-7.63 0.32,-14.77 0.55,-22.55 1.29999996,-1.54 1.55999996,-4.62 3.53999996,-5.17 2.63,-1.89 5.47,-1.02 7.5399996,1.18 z"
     fill="#020302"
     id="path39" />
  <path
     d="m 280.23143,775.07427 c 2.66,0.55 6.06,2.81 4.98,5.99 -0.41,2.88 -3.31,4.07 -5.43,5.54 -7.13,1.98 -13.19,4.61 -19.55,8.34 -3.27,2.25 -7.58,2.66 -10.54,-0.34 -0.7,-2.24 -0.65,-3.85 0,-6.09 2.73,-3.62 6.53,-5.41 10.54,-7.19 3.87,-1.43 7.52,-3.83 11.56,-4.72 2.49,-1.03 5.76,-2.39 8.44,-1.53 z"
     fill="#020302"
     id="path40" />
  <path
     d="m 314.23143,774.93427 c 5.64,1.16 11.99,3.9 17,6.83 3.89,1.64 6.91,5.02 7.32,9.3 -0.24,4.19 -6.37,5.13 -9.39,3.3 -1.77,-1.54 -4.23,-0.86 -5.39,-2.84 -2.73,-1.12 -6.89,-2.99 -9.54,-4.26 -2.68,-0.35 -5.56,-0.75 -6.46,-3.75 -2.02,-2.77 0.12,-4.42 0.92,-6.99 1.95,-0.66 3.33,-1.82 5.54,-1.59 z"
     fill="#020302"
     id="path41" />
  <path
     d="m 9.7714294,788.52427 c 1.6299996,1.54 3.9599996,3.31 4.5799996,5.54 0.19,2.85 0,5.93 1.42,8.45 0.17,2.13 -0.29,5.17 1,6.99 -0.08,3.43 0.76,6.71 0.92,10.12 0.86,1.57 0.82,3.69 0.88,5.44 -0.16,3.17 -3,6.12 -6.34,5.28 -3.2599996,-0.52 -5.1699996,-4.4 -5.9099996,-7.28 -1,-4.98 -2.26,-12.05 -2.89,-17 -1.01,-4.29 -2.27,-9.66 -0.94,-14 1.37,-3.08 3.9,-4.55 7.28,-3.54 z"
     fill="#020302"
     id="path42" />
  <path
     d="m 234.78143,802.52427 c 2.58,2.6 2.2,5.98 1.03,9.17 -3.85,4.67 -7.2,9.65 -10.03,14.92 -2.15,2.68 -6.73,3.83 -9.42,1.27 -1.89,-2.04 -0.88,-4.96 -0.67,-7.38 3.57,-6.1 7.42,-13.64 13.49,-17.49 1.04,-1.08 4.12,-0.42 5.6,-0.49 z"
     fill="#020302"
     id="path43" />
  <path
     d="m 352.69143,809.52427 c 1.65,-0.06 3.44,-0.07 5.09,0 4,2.89 6.37,6.79 7.76,11.46 2.65,5.13 3.97,12.57 5.45,18.14 1.04,1.28 0.78,2.41 1.01,3.94 1.43,2.3 0.86,5.9 0.77,8.55 -1.7,1.64 -3.93,4.11 -6.54,3.42 -3.63,-1.65 -3.79,-4.49 -5.54,-7.42 -1.23,-6.55 -3.06,-12.7 -4.92,-19.1 -1.78,-3.23 -3.18,-6.73 -5.08,-9.9 -0.63,-2.47 -0.28,-4.63 0,-7.09 0.66,-0.67 1.33,-1.33 2,-2 z"
     fill="#020302"
     id="path44" />
  <path
     d="m 207.69143,843.52427 c 1.42,-0.15 2.68,-0.4 4.09,0 1.37,0.71 1.92,1.96 2.99,2.99 1.07,4.7 -0.71,10.19 -2.34,14.55 -1.31,2.41 -0.94,5.37 -2.1,8 -1.04,1.67 -0.4,3.28 -1.29,5 -1.1,2.48 -3.45,4.76 -6.36,3.54 -2.07,-1.4 -4.35,-3.86 -3.87,-6.54 -0.15,-3.58 0.69,-7.02 0.88,-10.56 2.05,-2.9 1.86,-7.14 3.29,-10.44 0.93,-2.82 3.11,-4.26 4.71,-6.54 z"
     fill="#020302"
     id="path45" />
  <path
     d="m 22.231429,848.66427 c 1.96,-0.02 2.82,1.47 4.54,1.86 0.37,1.26 1.23,1.98 2,3 0.59,3.41 2.78,5.61 2.92,9.09 1.2,2.13 2.42,4.59 3,7 1.77,2.47 2.79,6.13 4.19,8.69 0.91,2.62 1.99,4.92 1.14,7.76 -1.27,3.15 -5.56,4.08 -8.37,2.56 -2.74,-2.05 -4.05,-4.86 -4.88,-8.11 -1.24,-2 -2.77,-5.7 -3,-7.99 -2.01,-1.4 -1.79,-5.48 -4.08,-6.91 -0.65,-1.78 -0.82,-3.43 -2,-4.99 -0.33,-3.63 -1.06,-6.82 1,-10.1 1.27,-0.71 2.01,-1.73 3.54,-1.86 z"
     fill="#020302"
     id="path46" />
  <path
     d="m 367.69143,879.52427 c 1.39,-0.15 2.69,-0.13 4.08,0 1.02,1.5 2.28,2.66 2.77,4.47 1.43,3.11 0.08,7.2 0.23,10.62 -1.96,2.19 -0.73,5.15 -2.08,7.87 0.17,2.62 -1.4,3.96 -1.15,6.58 -1.72,2.47 -0.9,6.52 -2.62,9 -0.1,2.24 -2.11,5.63 -4.33,6.41 -2.74,1.97 -6.99,-0.18 -7.42,-3.41 -1.1,-3.54 0.72,-5.7 1.09,-9 0.55,-3.81 2.29,-7.71 2.43,-11.55 1.5,-2.05 0.39,-4.12 1.54,-6.45 1.17,-4.4 0.08,-8.53 2.93,-12 0.63,-1.01 1.76,-1.62 2.53,-2.54 z"
     fill="#020302"
     id="path47" />
  <path
     d="m 204.23143,894.68427 c 2.12,1.22 3.92,1.92 4.9,4.38 1.71,2.6 0.81,6.34 2.19,9 1.4,5.57 2.62,11.55 4.49,17 0.42,2.81 1.55,4.51 0.96,7.55 -1.35,1.61 -3.29,3.55 -5.54,3.54 -2.3,0.29 -4.3,-2.27 -5.2,-4.09 -3.17,-5.21 -3.4,-11.37 -5.38,-17 -0.22,-6.37 -3.89,-9.79 -2.08,-16 0.79,-2.14 3.05,-4.88 5.66,-4.38 z"
     fill="#020302"
     id="path48" />
  <path
     d="m 49.681429,904.60427 c 6.1,0.35 9.38,8.45 12.01,13.01 0.8,0.54 1.42,1.27 1.85,2.21 2.49,3.54 5.09,6.91 7.23,10.69 0.34,2.44 0.85,5.06 -1.45,6.67 -3.57,3.06 -9.09,0.71 -11.1,-3.12 -2.67,-4.54 -6.42,-8.69 -8.45,-13.54 -2.23,-2.35 -3.01,-5.53 -5.08,-7.91 -0.84,-2.66 0.83,-3.94 0.85,-6.55 0.39,-1.85 2.65,-2.49 4.14,-1.46 z"
     fill="#020302"
     id="path49" />
  <path
     d="m 352.66143,942.61427 c 1.39,2.13 2.39,4.88 1.32,7.37 -2.16,4.04 -5.13,7.54 -7.21,11.63 -2.55,2.83 -4.66,5.88 -7.12,8.86 -1.73,2.37 -3.2,4.61 -6.42,4.81 -2.32,0 -5.87,-0.11 -5.84,-3.22 -0.34,-1.01 -0.47,-2.01 -0.36,-3 2.18,-5.83 7.66,-10.79 11.27,-15.96 1.93,-3.44 3.85,-6.46 6.39,-9.58 2.64,-0.88 5.19,-2.74 7.97,-0.91 z"
     fill="#020302"
     id="path50" />
  <path
     d="m 89.681429,950.61427 c 4.12,3.52 7.94,7.35 12.270001,10.76 2.75,2.45 5.56,4.65 5.5,8.69 1.02,4 -5.3,6.48 -8.060001,4.75 -6.38,-4.4 -12.54,-9.38 -17.86,-15.04 -1.98,-2.53 -3.32,-6.44 -2.02,-9.54 1.92,-3.43 8.4,-3.04 10.17,0.38 z"
     fill="#020302"
     id="path51" />
  <path
     d="m 219.47143,950.37427 c 2.98,-1.99 7.38,0.67 9.3,3.14 2.91,7.89 10.39,15.13 14.15,22.72 1.26,3.35 -0.13,5.8 -2.15,8.37 -3.42,0.77 -6.55,-2.01 -9.09,-3.98 -0.96,-2.62 -2.96,-3.89 -4.41,-6.56 -3.32,-4.78 -6.73,-9.59 -9.58,-14.45 0.08,-3.12 -1.31,-7.14 1.78,-9.24 z"
     fill="#020302"
     id="path52" />
  <path
     d="m 132.23143,983.27427 c 5.19,3 10.79,6.56 16.55,8.25 2.35,1.67 5.81,2.9 7.22,5.6 1.7,3.53003 -0.91,7.61003 -4.77,7.61003 -2.3,0.4 -4.32,-0.26 -6.34,-1.27 -3.24,-1.48 -6.43,-2.94 -9.55,-4.67003 -4.91,-2.81 -11.16,-4.56 -14.65,-9.18 -0.14,-1.7 -0.13,-3.4 0,-5.1 2.5,-4.25 7.89,-3.13 11.54,-1.24 z"
     fill="#020302"
     id="path53" />
  <path
     d="m 308.67143,984.52427 c 3.06,-1.1 6.91,-0.83 8.33,2.54 1.57,3.91 -2,7.79 -5.2,9.54 -2.55,1.1 -4.48,3.06 -7.12,3.92003 -1.69,1.87 -4.17,2.32 -5.9,4.08 -3.6,0.94 -7.13,3.24 -10.55,4.64 -2.6,0.44 -4.37,-1.33 -5.75,-3.25 -0.73,-1.93 0.14,-3.54 0.21,-5.47 1.78,-2.13003 3.57,-2.62003 5.68,-4.15003 7.02,-4.15 13.56,-7.29 20.3,-11.85 z"
     fill="#020302"
     id="path54" />
  <path
     d="m 255.68143,992.60427 c 3.34,1.01 5.84,5.39 8.55,7.47003 2.71,2.46 5.05,4.77 7.54,7.44 0.58,1.78 0.17,3.32 0,5.1 -2.2,2.36 -2.75,5.22 -6.09,5.91 -2.43,1.58 -4.98,0.19 -7.45,1.66 -2.94,1.15 -6.06,0.73 -9,1.82 -3.4,0.99 -6.56,0.43 -10,1.44 -2.79,-0.1 -5.21,0.09 -7.29,-2.1 -3.42,-2.67 -0.41,-8.78 3.23,-9.55 3.95,-1.1 9.48,-1.19 13.62,-1.19 1.61,-1.06 4.12,-0.87 6,-1 0.5,-1.74 -2.03,-2.89 -2.87,-4.22 -2.69,-2.57 -4.67,-5.37 -3.82,-9.32003 0.07,-3.68 4.78,-5.82 7.58,-3.46 z"
     fill="#020302"
     id="path55" />
  <path
     d="m 182.66143,1005.6043 c 2.6,0.14 5.85,0.43 8.01,2 2.53,0.14 5.71,-0.16 8,1 3.9,0.46 7.99,-0.67 10.89,2.11 1.88,1.42 3.26,3.75 2.34,6.14 -1.7,2.42 -4.55,4.57 -7.67,4.14 -4.58,-0.88 -8.85,-0.81 -13.58,-1.39 -3.46,-1.5 -7.98,-1.83 -11.42,-3.18 -3.68,-0.31 -6.43,-3.75 -6.23,-7.36 0.62,-4 6.63,-5.65 9.66,-3.46 z"
     fill="#020302"
     id="path56" />
  <path
     d="m 280.67143,1018.5243 c 3.94,-1.51 6.49,0.37 9.35,2.8 4.05,3.59 8.62,6 13.03,9.01 2.68,2.12 4.04,4.88 2.72,8.27 -2.02,2.23 -5.61,3.06 -8.46,2.15 -2.61,-1.21 -5.01,-3.03 -7.62,-4.15 -4.35,-3.41 -10.4,-6.95 -12.19,-12.54 -1.02,-2.67 0.78,-4.67 3.17,-5.54 z"
     fill="#020302"
     id="path57" />
  <path
     d="m 333.03143,1047.3843 c 2.97,1.22 6.17,3.01 9.2,4.38 2.1,1.34 4.36,1.19 6.44,2.84 1.15,0.01 2.15,0.34 3,1 4.59,-0.12 9.4,4.44 8.19,9.17 -2.18,2.85 -6.41,4.09 -9.68,2.5 -3.82,-1.44 -6.89,-1.42 -10.4,-3.75 -4.99,-1.28 -9.48,-3.53 -13.98,-6 -1.17,-1.53 -2.97,-1.24 -4.11,-2.92 -0.24,-1.77 -1.02,-5.25 0.5,-6.58 2.28,-3.28 7.97,-2.78 10.84,-0.64 z"
     fill="#020302"
     id="path58" />
  <path
     d="m 388.23143,1067.4543 c 3.61,0.96 6.49,2.83 10,3.42 3.08,1.77 7.57,0.59 10.45,2.73 2.07,0.02 4.18,0.38 6.18,0.89 2.81,1.5 7.19,4.33 5.91,8.11 -1.52,2.15 -3.35,2.6 -5.54,3.71 -2.49,0.38 -4.99,-0.82 -7.55,-0.71 -3.16,-1.74 -7.35,-1.21 -10.45,-2.71 -2.19,-0.23 -3.89,-1.43 -6,-1.63 -3.08,-1.66 -8.41,-1.31 -10.66,-4.51 -2.02,-2.02 -1.82,-6.14 0.45,-7.92 1.77,-2.14 4.76,-1.58 7.21,-1.38 z"
     fill="#020302"
     id="path59" />
  <path
     d="m 549.78143,1080.5243 c 1.46,0.86 2.87,1.69 3.99,2.99 0.57,1.68 0.44,3.42 0,5.11 -1.14,0.89 -2.09,1.85 -2.98,2.98 -8.57,2.59 -20.07,1.68 -29.11,1.92 -1.78,1.5 -4,1.03 -5.87,0 -3.07,-0.71 -5.98,-2.97 -5.26,-6.46 0.65,-2.42 2.97,-5.19 5.68,-5.14 6.39,0 12.65,0.39 19,-0.48 5.61,0.25 9.06,-1.91 14.55,-0.92 z"
     fill="#020302"
     id="path60" />
  <path
     d="m 448.23143,1080.6443 c 2.98,0 6.06,0.04 9,0.37 2.61,1.31 6.13,0.26 9,0.7 6.22,0.89 11.64,-0.9 17.55,1.81 2.2,1.43 3.85,5.06 2.25,7.47 -0.85,1.43 -2.44,1.06 -3.25,2.61 -9.67,0.41 -19.42,-0.09 -29.11,0 -1.57,-0.96 -3.89,-0.38 -5.51,-1.23 -2.26,-0.93 -4.32,-2.93 -4.99,-5.31 -0.45,-3.14 2.09,-5.91 5.06,-6.42 z"
     fill="#020302"
     id="path61" />
</svg>
