<?xml version="1.0" encoding="UTF-8" standalone="no"?>
<svg
   version="1.1"
   viewBox="0 0 662.90918 763.56335"
   width="662.90918pt"
   height="763.56335pt"
   id="svg8"
   sodipodi:docname="chat-bubble.svg"
   inkscape:version="1.4.2 (ebf0e940d0, 2025-05-08)"
   xmlns:inkscape="http://www.inkscape.org/namespaces/inkscape"
   xmlns:sodipodi="http://sodipodi.sourceforge.net/DTD/sodipodi-0.dtd"
   xmlns="http://www.w3.org/2000/svg"
   xmlns:svg="http://www.w3.org/2000/svg">
  <defs
     id="defs8" />
  <sodipodi:namedview
     id="namedview8"
     pagecolor="#262626"
     bordercolor="#000000"
     borderopacity="0.25"
     inkscape:showpageshadow="2"
     inkscape:pageopacity="0.0"
     inkscape:pagecheckerboard="0"
     inkscape:deskcolor="#d1d1d1"
     inkscape:document-units="pt"
     showgrid="false"
     inkscape:zoom="0.35877404"
     inkscape:cx="420.87772"
     inkscape:cy="491.9531"
     inkscape:window-width="1416"
     inkscape:window-height="850"
     inkscape:window-x="0"
     inkscape:window-y="0"
     inkscape:window-maximized="1"
     inkscape:current-layer="svg8"
     inkscape:antialias-rendering="true" />
  <path
     id="path2"
     d="M 274.47656 0.30908203 C 260.32656 -0.60091797 246.39734 0.77845703 232.27734 0.91845703 C 226.34734 1.118457 220.45758 1.8586914 214.51758 1.9086914 C 205.46758 1.9686914 196.50656 3.0284375 187.47656 3.3984375 C 168.10656 3.5384375 148.77652 6.0479297 129.43652 7.1279297 C 122.45652 7.8179297 115.41754 8.2488281 108.47754 9.2988281 C 99.287538 10.998828 90.307539 14.218535 81.477539 17.248535 C 68.437539 21.548535 56.036719 28.518945 45.386719 37.168945 C 36.136719 44.678945 29.457734 54.138984 23.677734 64.458984 C 16.637734 78.128984 12.606602 93.867755 10.016602 108.94775 C 6.6566021 123.31775 5.0767578 137.64809 3.6767578 152.28809 C 1.7767578 166.23809 1.5070313 180.24904 0.45703125 194.26904 C 0.00703125 216.23904 -0.53353519 238.41789 1.1264648 260.33789 C 1.7564648 271.45789 5.7766992 282.77848 9.6166992 293.18848 C 16.246699 308.06848 24.487695 322.99814 37.637695 333.09814 C 45.327695 338.87814 54.696504 342.74787 63.666504 346.06787 C 75.156504 350.24787 86.836621 351.07904 98.286621 355.51904 C 95.936621 360.59904 92.556797 364.62902 89.466797 369.24902 C 82.736797 379.21902 75.917656 389.17869 69.597656 399.40869 C 61.337656 412.05869 52.776836 424.3491 46.256836 438.0791 C 44.016836 442.7391 42.386719 448.08857 42.386719 453.28857 C 42.366719 457.74857 46.276309 461.84893 50.216309 463.39893 C 54.636309 464.79893 60.126816 463.49857 64.486816 462.28857 C 77.626816 458.54857 90.487089 451.68811 102.51709 445.30811 C 114.26709 438.90811 125.84672 432.24846 136.88672 424.66846 C 150.24672 416.12846 163.29629 407.10854 176.44629 398.24854 C 182.34629 394.19854 188.25641 390.10814 193.81641 385.59814 C 198.58641 381.73814 202.81771 377.21898 207.65771 373.45898 C 211.26771 370.70898 215.3165 370.07768 219.6665 369.36768 C 224.2265 368.70768 228.84654 368.00768 233.45654 367.86768 C 248.13654 368.08768 262.81707 367.59898 277.49707 367.45898 C 286.44707 366.90898 295.3574 366.02811 304.3374 365.80811 C 321.4674 364.67811 338.61764 362.96877 355.57764 360.23877 C 364.28764 358.49877 373.11687 357.63807 381.79688 355.76807 C 388.85688 354.34807 395.83637 352.71811 402.77637 350.80811 C 409.33637 349.01811 415.51711 348.25811 421.78711 345.55811 C 428.54711 342.62811 434.80709 339.08859 440.01709 333.80859 C 452.04709 321.86859 457.76695 304.08842 461.12695 287.87842 C 464.73695 268.81842 467.42699 249.54783 469.66699 230.27783 C 470.38699 221.60783 471.37758 212.98768 472.51758 204.36768 C 473.62758 190.92768 475.62709 177.65854 476.01709 164.24854 C 476.37709 152.59854 477.23764 140.88852 477.07764 129.22852 C 476.31764 116.66852 474.51721 104.23779 471.63721 91.987793 C 467.88721 77.107793 461.98742 62.817949 454.10742 49.647949 C 449.99742 42.767949 443.91701 37.077871 437.93701 31.817871 C 433.18701 27.607871 427.80771 24.379063 422.15771 21.539063 C 412.75771 16.329063 402.16762 12.897871 391.80762 10.067871 C 372.76762 5.697871 352.92633 3.6391016 333.48633 2.3291016 C 325.80633 1.6391016 318.11676 1.8790625 310.42676 1.2890625 C 298.49676 0.25906249 286.44656 1.139082 274.47656 0.30908203 z M 255.47754 25.44873 C 272.11754 25.59873 288.84756 25.328574 305.49756 25.788574 C 322.04756 26.938574 338.64678 27.427676 355.19678 28.867676 C 362.72678 29.717676 370.17652 31.227832 377.68652 32.277832 C 390.37652 34.197832 402.74635 37.707773 414.25635 43.467773 C 421.82635 46.917773 428.47689 51.708672 432.56689 59.138672 C 436.40689 66.388672 439.33713 74.179023 441.80713 81.999023 C 443.89713 88.429023 445.96635 94.788966 447.25635 101.43896 C 448.36635 106.90896 448.54734 112.29789 449.02734 117.83789 C 450.30734 129.48789 449.53742 141.56781 448.85742 153.25781 C 448.31742 164.01781 448.21715 174.6391 446.82715 185.3291 C 446.00715 195.3591 444.38693 205.26904 443.35693 215.26904 C 442.46693 224.51904 440.97773 233.70848 439.92773 242.93848 C 438.63773 255.53848 436.35641 268.04873 433.81641 280.44873 C 431.05641 293.00873 427.29766 306.31818 417.59766 315.38818 C 410.28766 321.34818 398.3068 322.49875 389.4668 325.21875 C 376.2168 328.58875 362.49686 330.29787 349.02686 332.56787 C 326.98686 336.37787 304.83709 338.06904 282.51709 339.01904 C 274.12709 338.83904 265.85756 340.02863 257.49756 340.09863 C 239.69756 340.30863 221.54756 340.36904 204.24756 345.01904 C 198.58756 346.62904 193.21686 348.72791 188.52686 352.35791 C 183.29686 356.44791 177.97736 360.41885 172.79736 364.56885 C 161.85736 373.30885 150.37764 380.4784 138.82764 388.6084 C 129.00764 395.5184 119.10744 402.29887 108.87744 408.58887 C 103.39744 411.84887 98.3075 415.96807 92.4375 418.01807 C 93.5775 413.54807 96.346504 410.39826 98.916504 406.71826 C 103.5765 400.21826 107.34656 393.18807 111.72656 386.51807 C 116.89656 378.09807 123.2967 370.09889 127.3667 361.10889 C 130.1367 355.07889 129.66738 348.28803 126.06738 342.72803 C 123.11738 337.80803 118.56703 335.57854 113.70703 332.99854 C 109.54703 330.78854 105.23674 329.20818 100.65674 328.13818 C 88.956737 325.37818 77.357344 322.18877 65.777344 318.98877 C 59.477344 317.24877 53.686621 314.31826 48.786621 309.96826 C 37.886621 300.79826 32.146328 287.55801 28.986328 273.95801 C 27.216328 265.16801 25.896328 256.21855 25.236328 247.26855 C 24.546328 238.05855 25.746855 229.43855 25.776855 220.26855 C 25.916855 212.21855 25.506367 204.2983 26.276367 196.2583 C 26.976367 189.2783 27.047656 182.25855 27.597656 175.26855 C 29.707656 150.98855 32.347363 126.48811 37.047363 102.55811 C 39.747363 92.198106 43.187109 81.898398 49.037109 72.858398 C 52.957109 65.928398 58.317363 60.288145 64.047363 54.848145 C 68.747363 50.488145 74.327129 47.318848 80.307129 45.068848 C 91.397129 40.948848 102.10684 36.997754 113.75684 34.697754 C 125.06684 32.217754 136.11721 31.918398 147.63721 30.858398 C 168.54721 29.578398 189.56658 28.058867 210.49658 27.588867 C 225.46658 26.408867 240.45754 25.68873 255.47754 25.44873 z " />
  <path
     d="m 341.47701,119.77839 c 9.14,0.17 18.96,-0.74 27.73,1.83 3.44,1.1 6.65,2.91 7.48,6.72 0.8,4.44 -1.57,9.38 -4.67,12.49 -3.03,3.08 -7.83,3.74 -11.9,4.41 -10.18,1.33 -20.39,1.73 -30.64,1.84 -21.28,1.38 -42.71,0.32 -64,1.4 -18.99,0.14 -38.03,0.07 -57,0.99 -13.34,0.12 -26.66,0.36 -40,0.26 -9.68,-0.02 -19.33,0.21 -29,-0.54 -9.37,-0.17 -18.69,-0.75 -27.97,-2.1 -3.76,-0.63 -8.51,-1.78 -11.2,-4.66 -1.940001,-2.26 -1.010001,-5.48 1.17,-7.18 3.15,-2.45 7.31,-3.85 11.1,-4.95 15.48,-4.18 31.66,-4.87 47.59,-5.61 6.8,-0.6 13.61,-0.67 20.41,-1.08 12.29,-0.87 24.61,-0.61 36.9,-1.41 12.34,-0.13 24.66,-0.6 37,-0.4 9.36,0.25 18.64,-0.89 27.99,-0.77 19.7,0.04 39.31,-1.43 59.01,-1.24 z"
     fill="#010101"
     id="path4" />
  <path
     d="m 355.50701,215.48839 c 5.13,0.05 10.94,0.74 15.49,3.27 3.16,1.75 4.52,4.92 4.26,8.45 -0.45,5.27 -3.65,11.32 -9.23,12.55 -12.08,3.13 -25.66,2.45 -38.06,3.25 -13.04,1.3 -26.32,0.73 -39.49,1.39 -16.01,0.14 -31.99,0.9 -48,0.71 -16,0.79 -32,0.51 -48,1.21 -10.95,0.35 -22.03,0.15 -33,0.28 -18.59,0.02 -36.39,0.68 -54.84,-2.37 -2.94,-0.57 -6.190001,-1.59 -8.510001,-3.54 -1.87,-1.71 -2.52,-4.56 -1,-6.72 1.48,-2.14 4.42,-3.37 6.760001,-4.33 19.67,-7.07 39.03,-7.17 59.62,-8.14 5.65,-0.75 11.26,-1.44 16.97,-1.37 9.37,0.1 18.66,-1.06 28.03,-1.11 15.21,-1.03 30.42,0.07 45.62,-1.09 12.12,-0.32 24.25,-0.25 36.36,-0.87 22.38,-0.34 44.65,-1.81 67.02,-1.57 z"
     fill="#010101"
     id="path5" />
  <path
     d="m 508.43701,288.58839 c 11.62,-0.66 23.23,-0.94 34.84,0.05 11.99,1.06 24.27,2.05 36.14,3.8 7.57,1.13 14.61,3.51 21.82,5.94 7.83,2.54 15.21,6.61 22.15,10.98 9.73,6.68 18.68,15.56 23.8,26.32 5.18,9.39 8.06,19.59 10,30.09 2.2,10.11 4.23,20.16 4.55,30.55 0.97,23.51 1.73,47.45 0.63,70.95 -0.45,16.01 -0.84,32.02 -1.97,48.01 -0.75,9.04 -0.61,18.1 -1.6,27.14 -0.98,8.03 -0.96,16.11 -1.87,24.15 -1.28,11.09 -2.2,21.59 -5.94,32.2 -5.14,14.56 -12.47,28.48 -24.8,38.22 -6.45,4.57 -13.53,8.46 -21.02,11.03 -8.18,2.88 -16.41,5.63 -24.71,8.16 -3.01,0.91 -5.93,1.91 -8.64,3.54 1.51,8.52 7.78,16.89 11.7,24.48 3.68,7.64 7.48,15.23 11.18,22.87 5.13,9.72 10.37,18.79 13.55,29.43 1.85,6.02 4.21,12.87 2.61,19.19 -1.47,5.22 -7.22,8.11 -12.37,7.86 -6.54,-0.31 -13.21,-2.61 -19.33,-4.84 -10.44,-4.06 -20.47,-9.12 -29.95,-15.11 -17.05,-10.71 -33.66,-22.17 -49.71,-34.34 -6.41,-4.6 -13.01,-8.85 -19.02,-13.99 -4.81,-4.18 -9.87,-8.12 -14.49,-12.51 -2.39,-2.18 -4.73,-5.07 -7.66,-6.49 -5.51,-0.65 -11.38,0.6 -16.92,0.94 -11.63,1.18 -23.29,1.31 -34.94,2.17 -6.65,0.26 -13.33,0.16 -19.99,0.15 -11.36,0.13 -22.63,-1.29 -34,-1.13 -12.27,-0.74 -24.65,-1.33 -36.81,-3.24 -15.87,-2.56 -32.64,-6.05 -47.33,-12.76 -11.38,-5.19 -20.22,-13.32 -28.37,-22.62 -7.85,-9.64 -13.26,-20.9 -17.54,-32.5 -4.7,-11.92 -6.91,-25.22 -9.32,-37.81 -1.51,-12.66 -1.89,-25.48 -2.52,-38.21 -1.08,-17.3 -0.37,-34.48 0.23,-51.78 1.73,-19.95 0.79,-38.97 4.89,-58.9 2.01,-9.33 2.88,-20.33 7.25,-28.84 1.33,-2.4 3.22,-5.46 6.4,-5.14 2.54,0.13 4.1,2.7 4.93,4.82 2.16,5.89 2.55,12.64 3.07,18.85 1.03,21.52 -0.1,42.63 -0.18,64.04 -0.52,24.47 -1.02,48.48 0.45,72.96 0.28,6.47 0.11,12.87 1.2,19.29 1.01,8.94 2.03,17.72 5.07,26.25 2.95,9.75 6.89,19.11 12.2,27.82 5.18,8.37 13.27,14.99 22.36,18.69 11.22,4.47 22.57,6.31 34.36,8.42 18.6,3.82 38.68,3.94 57.66,4.37 9.32,0.62 18.66,0.63 28,0.4 12.18,-0.85 24.33,-0.8 36.45,-2.5 8.79,-0.39 17.55,-2.08 25.74,0.99 11.01,3.41 19.39,11.9 28.34,18.74 10.27,7.72 20.32,15.9 31.01,23.02 14.45,10.28 28.89,20.72 44.06,29.94 3.66,2.3 7.08,4.67 11.36,5.69 -0.79,-3.07 -1.93,-5.86 -3.43,-8.64 -4.84,-9.2 -10.07,-18.12 -14.5,-27.54 -2.97,-6.33 -6.43,-11.78 -8.53,-18.48 -1.52,-4.9 -3.01,-9.87 -3.94,-14.92 -1.46,-7.04 2.23,-14.89 7.44,-19.53 6.73,-5.03 15.08,-8.15 22.98,-10.86 9.95,-2.81 19.56,-5.44 28.65,-10.59 3.62,-2.17 6.6,-5.43 9.22,-8.7 4.92,-6.26 9.1,-12.81 11.37,-20.51 3.82,-11.72 4.39,-23.17 5.51,-35.34 0.7,-7.05 1.24,-14.11 1.77,-21.17 1.03,-21 2.45,-41.92 3.79,-62.86 -0.11,-10.04 1.47,-19.94 1.08,-29.98 -0.09,-26.22 0.16,-54.34 -6.37,-79.91 -1.76,-7.72 -3.91,-14.96 -8.67,-21.42 -4.22,-5.86 -10.09,-9.49 -16.56,-12.43 -14.15,-6.84 -29.37,-9.11 -44.78,-11.1 -12,-1.05 -23.92,-2.59 -35.98,-2.93 -11.54,-0.78 -23.38,-1.24 -34.72,-3.62 -3.07,-0.71 -6.71,-1.62 -9.16,-3.7 -2.11,-1.8 -2.24,-5.08 -0.36,-7.1 2.63,-2.88 6.86,-4.53 10.53,-5.58 5.76,-1.55 11.7,-2.64 17.66,-2.89 z"
     fill="#010101"
     id="path6" />
  <path
     d="m 544.47701,411.90839 c 6.3,0.02 13.43,-0.14 19.46,1.85 2.92,0.99 6.03,2.84 6.88,6.01 1.69,6.7 -2.96,14.6 -9.65,16.34 -10.85,3.2 -23.5,2.38 -34.69,3.18 -10.31,0.69 -20.65,0.33 -30.96,1.08 -6.68,0.36 -13.37,0.27 -20.05,0.92 -9.65,0.63 -19.34,0.41 -28.99,1.11 -18.01,0.32 -35.98,1.44 -54,1.58 -17.32,0.7 -34.67,0.82 -52,0.63 -11.39,-0.03 -24.29,-0.28 -35.05,-4.37 -3.08,-1.1 -4.37,-4.38 -3.32,-7.38 1.19,-2.32 4.06,-3.69 6.35,-4.68 10.81,-4.32 21.65,-5.59 33.12,-6.76 11.22,-1.27 22.48,-1.33 33.72,-2.35 5.75,-0.45 11.43,-0.28 17.18,-0.57 9.01,-0.78 18.03,-0.56 27.04,-1.28 6.98,-0.54 13.97,-0.44 20.96,-0.84 10.3,-0.75 20.61,-0.46 30.91,-1.44 24.35,-0.74 48.73,-2.87 73.09,-3.03 z"
     fill="#010101"
     id="path7" />
  <path
     d="m 536.60701,526.69839 c 8.85,-0.09 18.73,-1.15 27.31,1.21 3.96,1.2 7.84,2.89 8.49,7.48 0.9,7.04 -4.71,15.06 -12,15.83 -17.26,2.51 -35.45,3.01 -52.93,3.87 -15.63,1.23 -31.34,1.59 -47,2.31 -22.33,0.35 -44.68,1.3 -67,2.23 -18.99,0.22 -38.01,1.17 -57,0.75 -9.29,-0.51 -19.32,-0.55 -28.37,-2.83 -3.03,-0.84 -6.39,-2.69 -6.38,-6.28 0.11,-3.39 3.58,-5.25 6.33,-6.4 11.14,-4.22 22.52,-6.83 34.43,-7.54 36.69,-2.51 73.27,-4.44 109.99,-6.32 8.46,-0.04 16.86,-0.7 25.29,-1.2 19.64,-0.41 39.24,-2.12 58.84,-3.11 z"
     fill="#010101"
     id="path8" />
</svg>
