<?xml version="1.0" encoding="UTF-8" standalone="no"?>
<svg
   version="1.1"
   viewBox="0 0 579.68951 793.51855"
   width="579.68951pt"
   height="793.51855pt"
   id="svg41"
   sodipodi:docname="pencil-task-black.svg"
   inkscape:version="1.4.2 (ebf0e940d0, 2025-05-08)"
   xmlns:inkscape="http://www.inkscape.org/namespaces/inkscape"
   xmlns:sodipodi="http://sodipodi.sourceforge.net/DTD/sodipodi-0.dtd"
   xmlns="http://www.w3.org/2000/svg"
   xmlns:svg="http://www.w3.org/2000/svg">
  <defs
     id="defs41" />
  <sodipodi:namedview
     id="namedview41"
     pagecolor="#424242"
     bordercolor="#000000"
     borderopacity="0.25"
     inkscape:showpageshadow="2"
     inkscape:pageopacity="0.0"
     inkscape:pagecheckerboard="0"
     inkscape:deskcolor="#d1d1d1"
     inkscape:document-units="pt"
     inkscape:zoom="0.32784669"
     inkscape:cx="503.28402"
     inkscape:cy="614.61655"
     inkscape:window-width="1416"
     inkscape:window-height="850"
     inkscape:window-x="0"
     inkscape:window-y="0"
     inkscape:window-maximized="1"
     inkscape:current-layer="svg41"
     showgrid="false" />
  <path
     id="path2"
     d="m 337.7124,0.01560301 c -3.30211,-0.0944 -6.59174,0.22969 -9.81299,1.24218999 -5.11,1.17 -10.19955,4.96998 -12.03955,9.97998 -3.62,10.6 -7.43096,21.10111 -10.48096,31.89111 -7.55,21.3 -14.81943,42.73027 -21.66943,64.280267 -3.84,10.36 -6.80064,20.99995 -10.41064,31.43995 -1.93,5.53 -3.38924,11.18902 -5.21924,16.74902 -4.35,13.44 -9.67067,26.48973 -13.93067,39.96973 -4.83,15.66999 -10.83918,30.93132 -15.65918,46.61132 -5.19,15.5 -10.75021,30.85905 -15.47021,46.51905 -6.28,17.25 -11.69934,34.77015 -17.56934,52.16015 -4.27,13.38 -9.12027,26.54948 -13.28027,39.95948 -5.01,14.16998 -9.59014,28.48005 -14.14014,42.81005 -1.46,4.75 -3.54011,9.38071 -4.62011,14.22071 -3.54,21.36 0.31961,40.61035 -1.40039,61.86035 -0.63,8.25 0.6898,16.97984 -0.7002,25.08984 -7,4.18 -14.739,7.57985 -22.229,10.83985 -10.12,3.73 -19.64034,8.77003 -29.84034,12.29003 -5.93,2.07 -11.49968,4.86026 -17.17968,7.51026 -6.67,3.14 -13.66108,5.46883 -20.35108,8.54883 -7.91,3.61 -16.22,6.06119 -24,9.97119 -9.12,4.43 -18.08984,6.03914 -26.58984,11.61914 -6.63,3.73 -14.10967,8.20049 -21.90967,7.75049 0.45,5.27 2.51953,9.87959 4.76953,14.57959 7.11,16.69 15.56996,32.31963 20.70996,50.11963 -1.8,-2.31 -3.24898,-4.68938 -4.45898,-7.35938 -4.8,-10.19 -9.22119,-20.50047 -14.47119,-30.48047 -3.52,-9.04 -8.09969,-17.51957 -12.67969,-26.05957 -1.03,-0.02 -2.0591,-0.0503 -3.0791,-0.0703 1.19,6.31 4.59947,11.17053 6.95947,17.04053 3.51,8.59 7.49016,16.95047 11.66016,25.23047 4.56,8.94 8.51045,18.16882 12.71045,27.29882 3.93,8.43 6.59912,17.39061 10.34912,25.87061 3.46,7.31 5.71965,15.07053 9.38965,22.29053 5.19,12.82 11.12068,25.39896 17.45068,37.68896 4.47,9.04 8.52978,19.99033 14.52978,28.34033 2.19,3 5.24004,4.03961 8.54004,5.34961 -1.21,3.41 -1.89976,6.73059 -2.00976,10.35059 3.91,-1.19 7.70951,-2.58934 11.74951,-3.31934 2.99,-0.54 5.71031,-1.46076 8.32031,-3.03076 9.38,-5.74 20.05055,-9.88953 30.31055,-13.76953 15.08,-5.98 29.99996,-12.40047 44.70996,-19.23047 6.84,-3.45 13.96969,-6.17934 20.92969,-9.31933 14.77,-7.31 29.89982,-13.89135 44.81982,-20.88135 6.1,-2.9 11.84057,-6.41885 18.08057,-9.06885 3.21,-1.35 5.2289,-4.53027 8.3789,-5.78027 2.31,1.94 4.05004,4.08052 7.04004,5.04052 -0.76,-13.85 -9.41966,-25.47099 -15.15966,-37.77099 -3.38,-7.86 -7.57952,-15.32944 -10.99952,-23.16944 -4.37,-9.84 -9.01062,-19.54025 -13.64062,-29.26025 -4.41,-10.56 -9.51967,-20.7802 -13.65967,-31.4502 -2.86,-7.28 -6.74963,-14.03908 -9.61963,-21.30908 -0.97,-2.28 -1.80978,-4.83056 -3.27978,-6.83056 -1.6,-1.78 -4.04032,-2.90086 -6.07032,-4.13086 2.42,-4.4 4.67032,-8.69975 7.57032,-12.73975 7.55,-10.56 13.77875,-21.98998 21.46875,-32.47998 5.52,-8.49 11.58105,-16.58977 16.83105,-25.25977 2.96,-5.23 7.5101,-9.41931 10.1001,-14.79931 2.17,-5.42 4.29996,-10.86028 6.45996,-16.28028 8.09,-24.41 16.77021,-48.71048 25.22021,-73.00048 4.74,-14.55 10.04887,-28.9102 14.83887,-43.4502 4.42,-12.63 8.1607,-25.48982 12.7207,-38.06982 3.69,-10.68 7.92014,-21.13022 11.14014,-31.97022 3.03,-8.46 5.96965,-16.88898 8.63965,-25.45898 5.31,-14.76 9.98973,-29.72049 15.21973,-44.50049 4.51,-14.6 10.10974,-28.78977 14.98974,-43.25977 5.56,-14.61 9.83041,-29.65 15.42041,-44.25 5.04,-15.039997 10.02961,-30.110617 15.09961,-45.140617 3.11,-9.61 6.52037,-18.75971 7.63037,-28.94971 0.09,-2.35 0.5903,-5.57994 -1.1997,-7.43994 -8.44,-9.64 -20.01053,-14.88055 -31.29053,-20.56055 -8.96,-4.46 -18.57906,-7.25916 -28.28906,-9.88916 -5.30625,-1.24375 -10.84414,-2.56581999 -16.34766,-2.72313999 z m 2.26172,6.92577999 c 4.35801,0.14766 8.61465,1.44658 13.0459,2.74658 14.22,3.49 27.91881,9.38024 40.56885,16.74024 3.75,2.17 7.21005,4.64089 9.81005,8.1709 -3.7,-0.64 -6.98951,-2.01108 -10.24951,-3.85108 -5.08,-2.86 -10.3798,-3.84006 -15.7998,-6.06006 -9.55,-3.93 -19.1503,-6.75992 -28.0503,-12.16992 -2.04,-1.43 -3.82947,-1.32996 -6.20947,-1.20996 -4.14,0.23 -7.48988,-1.40916 -11.12988,-3.13916 2.74875,-0.99 5.39935,-1.31613 8.01416,-1.22754 z m -12.86426,8.12695 c 6.48,1.03 12.33981,3.55994 18.04981,6.68994 -0.99,8.85 -4.31002,16.79008 -6.52002,25.33008 -1.58,6.18 -4.60996,11.71053 -6.45996,17.79053 -1.4,4.44 -3.31985,8.66029 -4.83985,13.05029 -3.35,11.96 -8.51978,23.259607 -11.52978,35.349607 -2.1,9.2 -5.5809,17.89899 -8.1709,26.95899 -2.5,8.76 -6.78953,16.81107 -9.26953,25.60107 -3.38,11.39 -7.76018,22.39994 -11.43018,33.68994 -3.41,9.28 -6.26033,18.7403 -9.59033,28.0503 -3.08,11 -7.61928,21.46896 -10.75928,32.43896 -3.7,12.08 -8.70049,23.68078 -12.25049,35.80078 -5.06,15.02 -10.97025,29.58994 -15.01025,44.93994 -4.28,11.44 -8.6501,22.97012 -12.3501,34.62012 -1.99,8.84 -5.94967,16.92012 -8.40967,25.62012 -2.17,7.73 -5.08931,15.17965 -7.29931,22.88965 -1.37,4.96 -4.4209,9.94 -4.4209,15 -0.15,4.43 -0.35025,8.68929 -2.26025,12.77929 -1.95,-4.92 -2.90905,-10.99933 -6.01905,-15.31933 -2.43,-2.74 -7.64027,-2.94989 -11.03027,-3.62989 1.77,-8.09 5.17015,-15.63066 7.16015,-23.68066 5.44,-18.1 11.4504,-36.04982 17.9004,-53.81982 2.12,-6.66 3.99882,-13.38047 6.29882,-19.98047 3.17,-10.52 7.29051,-20.68946 10.52051,-31.18946 5.57,-17.8 12.24992,-35.17035 18.16992,-52.86035 3.53,-10.98 7.0103,-22.05898 10.8003,-32.95898 4.81,-14.85 10.44947,-29.43981 15.20947,-44.29981 3.54,-12.6 8.02996,-25.08013 12.45996,-37.39013 6.2,-19.61 12.89018,-39.040197 19.68018,-58.450197 3.12,-9.89 6.52021,-19.6806 9.47021,-29.6206 2.12,-7.26 5.60068,-13.95973 7.70068,-21.21973 1.22,-4.14 2.38971,-8.25018 4.19971,-12.18018 z m 26.93262,8.91944 c 0.27082,-9.4e-4 0.55693,0.0363 0.85693,0.11133 5.66,1.19 11.16992,4.33921 16.66992,6.19921 3,1.08 6.22961,1.76967 9.09961,3.15967 0.64,3.39 0.20049,7.1107 -0.49951,10.4707 -0.51,2.5 -2.3198,3.95995 -3.7998,5.93995 -2.31,2.75 -3.11022,6.69933 -4.22022,10.06933 -3.9,11.84 -8.30002,23.49045 -12.52002,35.21045 -6.83,20.439997 -13.87982,40.809957 -20.81982,61.209957 -4.15,13.06 -9.11041,25.83969 -13.17041,38.92969 -6.29,18.12 -12.62912,36.21092 -18.59912,54.44092 -2.87,8.37 -5.92061,16.65984 -8.62061,25.08984 -4.08,12.55 -9.01973,24.77963 -12.96973,37.36963 -4.99,15.45 -11.27955,30.43953 -15.78955,46.01953 -4.24,13.45 -9.26099,26.651 -13.77099,40.021 -3.21,10.11 -7.2192,19.92012 -10.1792,30.12012 -1.84,6.48 -4.48082,12.03898 -5.34082,18.70898 -0.66,3.67 -0.25961,7.43033 -0.84961,11.09033 -1.47,1.2 -3.31072,2.05994 -4.99072,2.93994 -1.5,-4.75 -1.44938,-12.86023 -6.60938,-15.24023 -5.36,-2.22 -12.40021,-0.1991 -17.72021,1.4209 1.07,-9.27 5.3008,-17.0008 7.8208,-25.8208 2.07,-6.84 4.73935,-13.47006 6.83935,-20.31006 2.4,-7.99 5.91008,-15.53914 8.08008,-23.61914 2.13,-8.43 6.17947,-16.11123 8.45947,-24.51123 2.24,-8.07 5.96045,-15.56864 8.21045,-23.59864 1.69,-6.51 4.28061,-12.64099 6.37061,-19.02099 2.01,-5.72 3.48937,-11.51938 5.85937,-17.10938 4.82,-11.4 7.35957,-23.4001 11.80957,-34.8501 4.55,-14.65 9.79112,-29.05986 14.64112,-43.60986 5.64,-14.23 9.67931,-28.93988 14.79931,-43.37988 2.41,-6.4 3.77946,-13.08014 6.43946,-19.39014 3.41,-8.86 5.53097,-18.15961 8.75097,-27.09961 2.19,-6.05 4.05996,-12.11105 5.70996,-18.33105 2.25,-8.419997 5.71047,-16.209587 8.73047,-24.329587 5.4,-16.34 11.23963,-32.51947 16.36963,-48.95947 0.91,-2.97 1.79949,-6.53051 3.72949,-9.02051 0.3625,-0.2125 0.77178,-0.31924 1.22315,-0.3208 z m 36.79834,13.80615 c 1.32562,-0.0506 3.0617,0.62883 4.1792,0.67383 -0.57,4.14 -1.60024,8.18074 -2.49024,12.26074 1.72,-3.41 3.14992,-6.92969 4.66992,-10.42969 2.03,0.91 4.05032,1.80926 6.07032,2.73926 -1.41,6.39 -3.9011,12.45051 -5.8711,18.77051 -2.46,7.29 -4.65957,14.67941 -7.30957,21.89941 -4.92,12.68 -9.26,25.600997 -13.5,38.520997 -3.6,10.7 -7.5292,21.26881 -10.9292,32.02881 -9.07,26.51 -18.39035,52.95095 -27.36035,79.48095 -4.06,11.04 -7.36959,22.32934 -11.57959,33.31934 -5.58,16.41 -10.7306,33.00996 -16.8706,49.20996 -3.06,9.48 -6.1302,18.87066 -9.7002,28.18066 -7.18,22.9 -15.33951,45.44995 -22.99951,68.18995 -2.5,6.85 -4.82969,13.74029 -7.42969,20.55029 -2.03,5.51 -4.37121,10.64904 -5.24121,16.51904 -0.46,3.39 -1.53906,5.70088 -3.53906,8.40088 -1.9,-1.23 -3.90986,-2.89027 -6.10986,-3.53027 -2.35,-0.56 -4.81118,-0.68024 -7.20118,-0.99024 1.62,-4.7 4.20131,-8.89992 5.59131,-13.66992 3.72,-12.13 7.38907,-24.4606 11.78907,-36.3706 3.41,-8.14 5.42044,-16.53891 8.21044,-24.87891 2.56,-7.75 5.20954,-15.46045 7.76954,-23.21045 4.35,-11.73 8.71968,-23.45031 12.67968,-35.32031 2.64,-6.62 4.26057,-13.5602 6.83057,-20.2002 5.66,-15.51 10.57998,-31.24984 15.97998,-46.83984 4.78,-14.76 10.19967,-29.30977 15.15967,-44.00977 7.41,-21.89 14.72072,-43.8497 22.24072,-65.6997 6.95,-19.58 13.5702,-39.25946 20.2002,-58.939457 3.83,-10.03 6.80013,-20.32066 10.39013,-30.43066 1.87,-5.22 2.90924,-10.85037 5.21924,-15.88037 0.3125,-0.23 0.70949,-0.32737 1.15137,-0.34424 z M 192.35888,440.19822 c 1.61,5.44 2.25018,12.30052 5.43018,17.04052 1.66,2.56 4.24072,3.6902 7.24072,3.7002 3.73,-2.72 5.60002,-6.46983 10.27002,-8.06983 2.33,-0.76 6.45971,-1.92044 7.94971,0.78956 2.21,3.88 1.6807,10.56978 5.2207,13.77978 1.79,1.49 4.99971,3.75965 7.19971,1.88965 4.69,-3.15 10.46016,-6.69963 16.16016,-7.36963 2.71,2.7 5.18004,8.48943 2.54004,11.91943 -2.34,3.85 -5.46079,7.24067 -8.05079,10.93067 -6.72,9.65 -13.24933,19.41943 -19.81933,29.16943 -5.04,8.14 -10.31112,16.24033 -16.14112,23.84033 -4.26,5.31 -5.16898,12.81971 -10.45898,17.69971 -5.73,0.1 -11.8409,-3.22994 -17.1709,-5.18994 -0.16,-8.24 1.03049,-16.37963 1.00049,-24.61963 0.29,-19 -0.06,-38 0,-57 -0.01,-8.43 -0.83014,-17.14025 0.10986,-25.51025 1.73,-2.38 5.76953,-2.87 8.51953,-3 z m -20.56933,91.20996 c 0.07,4.81 -0.38955,9.56961 -0.78955,14.34961 -0.67,16.28 -1.49026,32.69023 -1.51026,48.99023 -0.07,4.06 0.99002,7.9402 1.27002,11.9502 -0.13,3.79 -2.17091,7.64089 -3.44091,11.17089 -5.93,14.46 -10.15881,29.26918 -14.77881,44.15918 -1.98,6.46 -3.01117,13.12987 -4.95117,19.60987 -5.06,-2.17 -9.75891,-4.99022 -14.37891,-7.97022 -12.81,-7.93 -25.06119,-16.76875 -36.97119,-25.96875 -2.11,-1.69 -4.44928,-1.77002 -7.00928,-2.02002 0.67,1.87 1.46,3.67877 2.25,5.48877 -1.42,0.59 -2.83047,1.1903 -4.23047,1.8003 2.49,2.53 5.38065,4.48039 8.16065,6.65039 2.38,1.91 3.47003,4.41959 4.79003,7.07959 -7.22,-3.46 -12.6497,-8.88909 -20.6997,-10.80909 -0.3,0.86 -0.62094,1.70004 -0.96094,2.54004 2.11,1.87 4.451,3.63932 6.271,5.79932 1.74,2.26 1.43886,5.81014 2.83886,8.14014 2.35,2.59 5.58043,4.47996 8.44043,6.45996 17.03,11.26 33.50034,23.50002 50.84034,34.27002 2.71,1.54 5.60013,3.62025 8.89013,3.01025 3.39,-0.55 6.6794,-0.94068 10.1294,-0.95068 0.71,-3.1 1.29998,-6.22965 1.72998,-9.38965 1.19,-9.56 4.20086,-19.01065 6.38086,-28.41065 2.64,-11.26 5.83935,-22.1998 9.83935,-33.0498 7.01,-23.29 14.23951,-46.38936 22.99951,-69.08936 3.08,3.19 1.42053,7.47938 2.04053,11.85938 -1.65,-0.11 -3.29971,-0.21934 -4.94971,-0.31934 1.2,3.5 2.62022,6.87996 4.22022,10.20996 3.33,6.97 5.6792,14.2003 8.6792,21.3003 5.44,12.64 9.78045,25.65912 15.71045,38.09912 3.93,7.94 6.59965,16.32082 10.88965,24.09082 2.43,4.25 4.19084,8.76937 5.86084,13.35937 -8.79,5.61 -18.19086,9.83996 -27.38086,14.70996 -9.17,4.67 -18.85903,8.31075 -27.99903,13.01075 -7.55,3.92 -15.51066,6.86982 -22.93066,11.06982 -12.07,5.67 -24.10053,11.53963 -36.54053,16.36963 -10.76,4.47 -20.75008,10.42023 -31.33008,15.24023 -3.33,-5.18 -6.48006,-10.47039 -9.81006,-15.65039 -6.23,-9.84 -10.58892,-20.04021 -15.64892,-30.47021 -2.4,-4.98 -5.18055,-9.62033 -7.06055,-14.84033 -3.26,-8.95 -7.45006,-17.70871 -11.31006,-26.42871 -2.5,-5.94 -4.57976,-12.0409 -7.25976,-17.9209 -4.44,-9.78 -7.46004,-20.06946 -12.29004,-29.68946 -3.65,-8.87 -9.5507,-16.29033 -12.7207,-25.34033 4.3,-2.26 8.22021,-4.44992 13.22021,-4.66992 3.35,-0.11 6.5609,-0.37953 9.6709,-1.76953 11.75,-4.97 23.0591,-10.15061 35.3291,-13.87061 4.73,-1.29 6.93106,-5.60041 11.58106,-7.17041 8.89,-3.24 17.23982,-7.60945 26.06982,-10.93945 7.76,-3.14 15.10978,-8.73008 23.52978,-9.58008 -4.09,4.27 -9.04994,5.2799 -14.18994,7.8999 -8.57,4.18 -17.50027,7.60059 -26.03027,11.85059 10.63,-2.8 20.13004,-7.73047 30.29004,-11.73047 5.32,-2.07 10.19004,-4.87988 15.29004,-7.37988 5.32,-2.65 11.24939,-4.8102 16.12939,-8.2002 -1.15,-1.49 -2.55902,-2.5505 -3.99902,-3.7705 2.37,-2.05 4.06928,-3.64961 4.75928,-6.84961 -3.92,0.52 -7.73041,1.48086 -11.67041,1.88086 4.33,-3.75 9.39072,-6.2209 14.74072,-8.1709 z m 10.22021,30.7705 c 0.65,0.02 1.30996,0.0496 1.95996,0.0996 0.45,0.09 0.89913,0.20055 1.34913,0.31055 0.11,1.5 0.15998,2.99975 0.22998,4.48975 2.09,0.78 4.17119,1.56043 6.22119,2.44043 -3.3,1.43 -6.6599,2.49984 -10.1499,3.33984 -0.01,-3.57 -3.6e-4,-7.13018 0.38964,-10.68018 z m 28.67578,2.75391 c 1.64876,0.0345 2.06573,2.43984 0.44385,3.10547 -1.91,0.33 -2.56955,-2.4191 -0.78955,-3.0791 0.12063,-0.02 0.23579,-0.0287 0.3457,-0.0264 z m -132.27539,9.20654 c -4.83,4.13 -11.14107,6.28996 -17.35107,7.20997 4.06,-4.57 11.60107,-6.02997 17.35107,-7.20997 z m -29.63086,9.54932 c -0.72,2.13 -1.19966,4.58072 -2.40966,6.49072 -1.34,1.27 -3.24991,2.00951 -4.89991,2.74951 -5.52,2.24 -10.9908,4.37946 -16.8208,5.68946 0.08,-0.76 0.14998,-1.51026 0.22998,-2.26026 2.89,-1.36 5.74063,-2.78935 8.39063,-4.58935 4.84,-3.27 10.05976,-5.95008 15.50976,-8.08008 z m 167.56055,16.06934 c 5.81,7.01 7.53992,17.01019 11.41992,25.45019 4.04,8.55 6.88036,17.56014 10.86036,26.14014 1.58,3.39 2.72882,6.84101 3.29882,10.54101 -4.72,-5.44 -6.74974,-13.61994 -9.73974,-20.18994 -3.51,-7.7 -6.59996,-15.50068 -9.45996,-23.45068 -2.29,-6.51 -5.1894,-11.86072 -6.3794,-18.49072 z m -55.60986,61.70068 c -1.2,10.58 -3.96026,21.08008 -6.76026,31.33008 -0.72,-0.65 -1.51062,-0.95992 -2.39062,-0.91992 1.2,-5.11 2.04078,-10.2603 3.55078,-15.3003 1.63,-5.36 2.4801,-10.36986 5.6001,-15.10986 z m 95.63965,4.31982 c 4.95,7.88 8.26031,16.85973 12.82031,24.96973 1.53,2.79 3.33885,5.57024 4.56885,8.49024 0.39,1.2 1.44138,2.96093 0.17138,3.96093 -1.17,0.52 -2.37033,0.97867 -3.59033,1.38867 -3.38,-9.51 -6.66015,-18.9799 -10.91015,-28.1499 -1.67,-3.5 -2.59006,-6.80967 -3.06006,-10.65967 z m -160.04004,6.32959 c 4.29,1.28 7.47939,3.82084 10.12939,7.36084 -4.04,-1.76 -7.74939,-3.43084 -10.12939,-7.36084 z m 161.81982,16.56006 c 1.88,3.45 2.85055,6.56096 3.31055,10.48096 -3.47,-0.46 -4.36094,-0.96002 -5.46094,-4.27002 -1.08,-2.73 0.76039,-4.13094 2.15039,-6.21094 z m -208.75928,8.09033 c 3.44,4.61 5.46938,9.53061 8.10938,14.62061 4.53,8.67 8.12033,17.75947 12.59033,26.45947 1.67,3.24 2.51008,6.41004 2.83008,10.04004 -3.94,-4.15 -5.211,-9.03951 -7.771,-13.99951 -2.27,-4.51 -4.49009,-9.02094 -6.35009,-13.71094 -3.2,-7.92 -7.4087,-15.27967 -9.4087,-23.40967 z m 208.02979,11.06983 c -3.98,4.68 -9.07115,5.62019 -14.18115,8.95019 -3.55,2.32 -6.88975,4.37024 -11.23975,4.74024 2.23,-2.27 4.81108,-3.95998 7.60108,-5.47998 6.07,-3.34 10.61982,-7.46045 17.81982,-8.21045 z m -36.73975,9.95068 c -5.64,4.98 -13.7913,7.27024 -20.5913,10.74024 -7.06001,3.62 -15.23997,5.98883 -21.45997,10.79883 2.7,-0.21001 5.39008,-0.55961 8.08008,-0.84961 -3.04,2.09 -6.33986,3.40994 -9.85986,4.43994 l 1.05029,-3.50977 c -6.99,2.46 -13.58017,5.76985 -20.43017,8.58985 -7.52,3.23 -15.45036,7.5797 -23.61036,8.6997 4.72,-3.96 9.97016,-5.26021 15.41016,-7.97021 7.63,-3.81 15.58065,-6.88934 23.16065,-10.81934 6.03,-3.18 12.49962,-5.27051 18.61962,-8.27051 6.84,-3.33 13.85008,-6.22927 20.83008,-9.25927 2.82,-1.24 5.77078,-2.02985 8.80078,-2.58985 z m -90.68115,44.61035 c 0.5,0.41 1,0.84002 1.5,1.27002 -6.47,3.46 -13.43971,6.89975 -20.69971,8.23975 1.16,-1.49 2.07018,-2.93109 3.93018,-3.62109 5.04,-2.04 10.12953,-4.11868 15.26953,-5.88868 z" />
  <path
     d="m 385.20949,63.308473 c -0.31,3.76 -1.38,7.29 -2.45,10.89 -1.39,4.36 -0.67,8.83 -1.97,13.21 -1.68,5.95 -4.1,11.68 -6.04,17.549997 -0.19,-2.24 -0.38,-4.49 -0.64,-6.719997 -2.19,4.219997 -3.38,8.609997 -4.04,13.299997 1.17,-1.21 2.32,-2.43 3.49,-3.63 -0.77,2.27 -1.24,5.28 -2.9,7.08 -1.43,0.32 -2.92,0.45 -4.37,0.63 3.19,-11.06 8.26,-21.499997 11.37,-32.569997 2.12,-6.5 3.65,-14.11 7.55,-19.74 z"
     fill="#020202"
     id="path7" />
  <path
     d="m 364.98949,120.60847 c -0.51,4.85 -2.09,9.45 -2.5,14.31 -0.22,3.48 -3.72,6.29 -4.48,9.63 -0.21,2.42 0.49,4.99 0.82,7.4 -0.93,-0.09 -1.82,-0.09 -2.75,0.02 -0.98,1.29 -2.02,2.53 -3,3.82 1.05,-6.54 3.84,-12.25 5.83,-18.5 1.98,-5.69 3.24,-11.31 6.08,-16.68 z"
     fill="#020202"
     id="path8" />
  <path
     d="m 352.97949,157.76847 c 0.54,1.94 1.47,4.29 1.09,6.32 -5.07,20.27 -14.28,39.02 -19.7,58.97 -0.85,-0.47 -1.69,-0.95 -2.53,-1.42 -0.63,0.92 -1.24,1.86 -1.83,2.81 0.96,2.01 3.05,3.67 2,6.02 -1.17,3.74 -2.59,7.43 -4.01,11.08 -1.43,3.99 -5.37,7.05 -8.04,10.35 1.08,-5.05 2.99,-9.78 5.01,-14.51 2.74,-6.43 4.1,-13.22 6.4,-19.75 0.98,-2.85 3.33,-4.24 5.11,-6.56 0.31,-2.98 -0.54,-5.7 0.45,-8.67 2.39,-7.66 5.03,-15.3 8.06,-22.74 0.83,0.26 1.67,0.52 2.51,0.78 1.06,-4.26 2.25,-8.35 4.35,-12.22 -1,-0.57 -2,-1.12 -3.01,-1.67 1.23,-3 2.5,-5.98 4.14,-8.79 z"
     fill="#020202"
     id="path9" />
  <path
     d="m 319.33949,254.36847 c 4.09,1.97 1.58,5.78 1.12,9.12 -1.46,-0.13 -2.93,-0.25 -4.4,-0.36 0.94,-3.01 1.85,-5.94 3.28,-8.76 z"
     fill="#020202"
     id="path10" />
  <path
     d="m 314.49949,267.35847 c 1.35,0.94 3.75,2.34 3.21,4.28 -0.52,3.85 -2.27,7.64 -3.76,11.2 -0.48,-1.41 -0.96,-2.83 -1.43,-4.25 -1.86,4.94 -2.76,9.23 -3,14.5 -0.64,-1.14 -1.36,-2.29 -1.84,-3.51 0.17,-3.03 1.55,-6.08 2.49,-8.95 1.64,-4.36 2.62,-8.94 4.33,-13.27 z"
     fill="#020202"
     id="path11" />
  <path
     d="m 306.12949,293.86847 c 1.02,0.26 2.04,0.56 3.04,0.9 -1.07,9.04 -5.3,16.65 -8.26,25.6 -1.49,4.06 -1.93,8.18 -5.02,11.34 -1.88,1.92 -3.15,4.15 -4.29,6.57 1.39,-0.85 2.76,-1.71 4.15,-2.57 -0.23,0.95 -0.47,1.89 -0.72,2.83 -0.91,5.29 -6.07,8.79 -8.95,13.46 0.98,-6.64 3.87,-12.32 5.96,-18.61 1,-2.97 2.85,-5.29 4.75,-7.71 -0.36,-2.32 -1.07,-4.27 -0.2,-6.58 1.4,-3.93 2.87,-7.92 4.63,-11.7 1.37,-2.87 4.73,-4.36 4.55,-7.71 0.14,-1.97 0.11,-3.89 0.36,-5.82 z"
     fill="#020202"
     id="path12" />
  <path
     d="m 284.29949,357.02847 c 1.25,0.84 2.43,1.8 3.62,2.73 -1.94,2.73 -4.06,5.14 -6.65,7.28 0.55,-3.49 1.35,-6.87 3.03,-10.01 z"
     fill="#020202"
     id="path13" />
  <path
     d="m 282.03949,370.73847 c -0.27,7.73 -4,15.9 -9.4,21.4 1.87,-5.34 3.77,-10.54 5.1,-16.06 0.62,-2.71 2.07,-3.87 4.3,-5.34 z"
     fill="#020202"
     id="path14" />
  <path
     d="m 272.17949,396.42847 c -0.5,4.12 -2.36,7.74 -3.35,11.71 -0.27,3.63 0.69,6.7 -1.1,10.16 -1.22,0.32 -3.25,-0.27 -3.59,1.34 -1.76,5.17 -2.83,10.39 -5.64,15.17 1.68,-10.39 5.81,-20.52 9.64,-30.28 1.08,-2.84 2.35,-5.57 4.04,-8.1 z"
     fill="#020202"
     id="path15" />
  <path
     d="m 579.68949,506.62847 c -0.72,3.5 -1.52,7.13 -3.27,10.28 -2.59,4.48 -6.41,8.33 -10.41,11.56 -5.09,4 -10.6,7.81 -16.49,10.51 -5.42,2.51 -11.96,3.07 -17.65,1.22 -3.68,-1.21 -6.19,-4.79 -8.71,-7.56 -7.38,7.22 -11.76,15.66 -18.14,23.77 -4.14,5.31 -8.37,11.28 -13.82,15.32 -5.28,3.61 -11.9,2.58 -16.79,-1.19 -7.26,-5.9 -10.58,-14.12 -13.51,-22.72 -5.13,5.79 -9.42,12.4 -13.51,18.95 -4.91,8.56 -10.44,16.78 -16.47,24.59 -2.22,2.73 -5,6.19 -8.69,6.74 -4.89,0.59 -10.34,-0.93 -13.67,-4.71 -3.79,-4.16 -5.81,-9.51 -7.29,-14.85 -1.62,-5.75 -2.04,-11.21 -4.65,-16.65 -2.32,2.84 -4.39,5.78 -6.29,8.91 -9.42,15.19 -18.1,30.88 -26.28,46.77 -1.91,3.39 -4.34,8.01 -7.94,9.79 -3.49,-0.01 -9.09,-1.76 -9.45,-5.91 -1.22,-9.2 1.54,-18.67 1.85,-27.82 0.22,-5.88 0.59,-11.64 0.17,-17.52 -3.6,3.69 -5.3,8.13 -7.49,12.68 -3.83,7.94 -8.14,15.63 -12.71,23.16 -2.55,4.16 -4.47,8.84 -7.35,12.74 -2.16,3.01 -5.83,4.64 -9.01,6.36 -0.79,-3.38 -1.77,-6.4 -0.75,-9.88 2.15,-8.22 6.24,-15.99 9.47,-23.85 6.15,-13.32 12.72,-26.81 21.11,-38.88 2.28,-3.18 5.5,-7.04 9.41,-8.11 3.13,0.1 6.37,1.58 8.92,3.34 2.6,1.85 3.04,5.03 3.44,7.97 0.78,8.12 -0.51,16.08 0.47,24.24 6.38,-8.84 11.04,-18.86 17.54,-27.65 4.56,-6.03 8.62,-13.77 14.55,-18.5 2.25,-1.97 4.39,-0.8 6.86,-0.05 2.86,1.12 5.55,2.48 6.65,5.57 1.85,5.5 1.79,11.76 2.71,17.49 0.89,7.17 2.96,14.23 5.83,20.85 3.99,-3.21 6.43,-7.41 9.14,-11.65 10.37,-15.36 17.37,-30.79 30.5,-44.48 1.46,-1.28 2.84,-2.74 4.98,-2.23 4.56,1.14 8.85,3.72 10.15,8.53 2.31,8.23 3.22,16.38 8.16,24.02 1.82,2.21 3.49,0.38 5.13,-0.92 4.85,-4.73 8.53,-11.08 12.4,-16.62 5.36,-7.59 11.04,-14.9 16.63,-22.33 2,-2.48 4.27,-5.49 7.16,-6.95 3.5,-0.54 7.35,1.08 9.71,3.67 3.02,3.44 2.98,9.19 5.96,12.53 9.91,-1.78 15.71,-8.44 23.48,-13.95 5.35,-3.99 11.48,-5.55 17.96,-6.58 z"
     fill="#020202"
     id="path17" />
</svg>
